<?xml version="1.0"?>
<svg xmlns="http://www.w3.org/2000/svg" xmlns:xlink="http://www.w3.org/1999/xlink" xmlns:svgjs="http://svgjs.com/svgjs" version="1.1" width="512" height="512" x="0" y="0" viewBox="0 0 85.348 85.348" style="enable-background:new 0 0 512 512" xml:space="preserve" class=""><g>
<g xmlns="http://www.w3.org/2000/svg">
	<g>
		<path style="" d="M32.55,43.798c-0.089-0.047-0.172-0.218-0.168-0.329c0.011-0.712-0.068-1.453,0.082-2.147    c-0.197-0.576-0.376-1.163-0.472-1.793c-0.014-0.014-0.068-0.129-0.118-0.243c-0.147-0.358-0.29-0.709-0.394-1.081    c-0.261-0.891-0.472-1.782-0.673-2.677c-0.111-0.476-0.125-0.916-0.132-1.177c-0.222-1.41,0.125-2.512,0.73-3.332    c0-0.419,0-0.841,0-1.267l0.004-1.9c0-0.376,0.025-0.755,0.032-1.134c-0.132-0.111-0.261-0.225-0.39-0.34    c-0.329-0.279-0.361-0.497-0.054-0.805c0.14-0.14,0.315-0.236,0.472-0.354c-0.032-0.054-0.072-0.1-0.1-0.154    c-0.208,0-0.422-0.032-0.623,0.004c-0.755,0.122-1.517,0.229-2.265,0.397c-1.421,0.347-2.806,0.787-3.958,1.736    c-0.791,0.655-1.417,1.417-1.5,2.48c-0.043,0.555-0.036,1.127-0.039,1.693c-0.004,0.92,0.004,1.836-0.011,2.752    c-0.004,0.154-0.089,0.39-0.19,0.426c-0.372,0.118-0.379,0.365-0.333,0.673c0.036,0.218,0.007,0.433,0.057,0.644    c0.129,0.573,0.261,1.145,0.429,1.714c0.122,0.415,0.361,0.816,0.429,1.242c0.132,0.852,0.447,1.596,1.024,2.24    c0.097,0.107,0.168,0.29,0.157,0.429c-0.043,0.659-0.111,1.313-0.2,1.968c-0.018,0.125-0.154,0.319-0.261,0.34    c-0.437,0.086-0.505,0.426-0.608,0.766c-0.136,0.447-0.283,0.895-0.455,1.328c-0.057,0.14-0.19,0.279-0.326,0.336    c-0.777,0.344-1.568,0.651-2.348,0.977c-0.83,0.351-1.675,0.684-2.487,1.07c-0.837,0.397-1.65,0.852-2.469,1.292    c-0.48,0.265-0.934,0.551-1.313,0.909v1.432c2.391,0,4.781,0,7.172,0c0.369-0.236,0.744-0.483,1.185-0.712l0.759-0.412    c0.966-0.519,1.933-1.034,2.92-1.51c0.956-0.455,1.94-0.866,2.928-1.27l2.147-0.895c0.297-0.118,0.591-0.236,0.884-0.365    c0.064-0.197,0.125-0.397,0.186-0.594c0.197-0.651,0.472-1.181,0.787-1.65C32.961,44.21,32.875,43.938,32.55,43.798z" fill="#406242" data-original="#010002" class=""/>
		<path style="" d="M62.662,46.307c-0.19-0.072-0.408-0.211-0.487-0.372c-0.204-0.455-0.351-0.938-0.49-1.414    c-0.089-0.297-0.175-0.587-0.508-0.727c-0.086-0.047-0.172-0.218-0.168-0.329c0.014-1.102-0.233-2.255,0.576-3.207    c0.025-0.036,0.036-0.075,0.054-0.111c0.44-0.966,0.523-2.061,1.131-2.956c0.014-0.021,0.018-0.05,0.021-0.075    c0.075-0.676,0.147-1.364,0.208-2.044c0-0.079-0.075-0.233-0.147-0.258c-0.34-0.122-0.322-0.394-0.319-0.666    c0.004-1.338,0-2.67,0-4.008c0-0.777-0.225-1.464-0.816-1.993c-0.673-0.601-1.356-1.181-2.04-1.761    c-0.329-0.279-0.365-0.497-0.057-0.805c0.14-0.14,0.319-0.233,0.476-0.354c-0.036-0.054-0.072-0.1-0.1-0.154    c-0.208,0-0.422-0.029-0.623,0.004c-0.755,0.122-1.517,0.229-2.265,0.397c-1.031,0.251-2.011,0.626-2.924,1.131v4.781    c0.469,0.716,0.712,1.578,0.651,2.462c-0.072,0.845-0.154,1.65-0.236,2.452l-0.154,1.474l-0.523,0.845    c-0.222,0.329-0.39,0.905-0.565,1.517c-0.093,0.326-0.229,0.637-0.336,0.963c0.086,0.104,0.161,0.268,0.154,0.401    c-0.047,0.662-0.111,1.313-0.204,1.968c-0.018,0.125-0.154,0.315-0.258,0.336c-0.426,0.086-0.501,0.412-0.601,0.741    c0.387,0.608,0.601,1.202,0.698,1.525c0.072,0.222,0.132,0.433,0.193,0.637c3.06,1.188,6.535,2.613,9.967,4.384    c0.487,0.243,0.927,0.53,1.346,0.83c2.312,0,4.631,0,6.947,0v-1.496c-0.351-0.365-0.762-0.666-1.238-0.902    C67.644,48.282,65.167,47.269,62.662,46.307z" fill="#406242" data-original="#010002" class=""/>
		<path style="" d="M77.45,57.691v-3.16V35.563V16.595c0-1.736-1.424-3.16-3.164-3.16h-63.22    c-1.739,0-3.167,1.417-3.167,3.16v18.968v18.968v3.16L0,67.175c0,2.613,2.122,4.738,4.738,4.738H80.61    c2.616,0,4.738-2.126,4.738-4.738L77.45,57.691z M49.002,70.339H36.354c-0.437,0-0.791-0.351-0.791-0.791s0.354-0.791,0.791-0.791    h12.648c0.433,0,0.791,0.351,0.791,0.791C49.782,69.988,49.435,70.339,49.002,70.339z M29.644,67.179l2.412-2.895h21.237    l2.412,2.895H29.644z M72.998,52.101c0,1.525-1.242,2.759-2.756,2.759h-8.081c-0.276-0.197-0.505-0.433-0.82-0.601    c-3.421-1.754-6.964-3.207-10.543-4.585c-0.272-0.097-0.587-0.301-0.694-0.537c-0.29-0.644-0.494-1.328-0.701-2.008    c-0.132-0.433-0.243-0.837-0.723-1.049c-0.129-0.064-0.24-0.308-0.24-0.469c0.025-1.571-0.336-3.225,0.823-4.595    c0.036-0.047,0.05-0.104,0.075-0.157c0.626-1.378,0.741-2.949,1.621-4.23c0.021-0.036,0.029-0.075,0.029-0.111    c0.097-0.973,0.211-1.958,0.293-2.928c0.007-0.122-0.097-0.336-0.204-0.372c-0.487-0.175-0.462-0.562-0.455-0.956    c0-1.911,0-3.819,0-5.737c0-1.106-0.329-2.097-1.167-2.852c-0.959-0.855-1.936-1.693-2.917-2.516    c-0.472-0.401-0.523-0.709-0.075-1.149c0.197-0.2,0.447-0.34,0.673-0.501c-0.054-0.075-0.1-0.147-0.147-0.222    c-0.297,0-0.601-0.039-0.891,0.007c-1.084,0.175-2.172,0.329-3.239,0.576c-2.036,0.487-4.015,1.117-5.665,2.477    c-1.134,0.938-2.033,2.018-2.147,3.557c-0.061,0.802-0.05,1.614-0.057,2.419c-0.007,1.313,0.007,2.62-0.014,3.937    c-0.004,0.218-0.129,0.562-0.276,0.612c-0.53,0.172-0.544,0.515-0.472,0.956c0.05,0.308,0.007,0.626,0.079,0.923    c0.183,0.82,0.376,1.639,0.612,2.452c0.175,0.601,0.519,1.167,0.612,1.779c0.19,1.224,0.644,2.287,1.467,3.207    c0.136,0.154,0.24,0.412,0.222,0.612c-0.064,0.941-0.157,1.875-0.286,2.813c-0.025,0.183-0.222,0.455-0.376,0.49    c-0.623,0.125-0.723,0.616-0.873,1.099c-0.197,0.644-0.404,1.278-0.655,1.908c-0.079,0.19-0.272,0.383-0.462,0.476    c-1.113,0.483-2.24,0.931-3.361,1.399c-1.192,0.505-2.394,0.977-3.557,1.539c-1.199,0.565-2.362,1.224-3.532,1.847    c-0.272,0.147-0.487,0.351-0.741,0.512h-8.271c-1.514,0-2.756-1.245-2.756-2.759V19.054c0-1.525,1.242-2.759,2.756-2.759h55.136    c1.514,0,2.756,1.242,2.756,2.759C72.998,19.054,72.998,52.101,72.998,52.101z" fill="#406242" data-original="#010002" class=""/>
	</g>
</g>
<g xmlns="http://www.w3.org/2000/svg">
</g>
<g xmlns="http://www.w3.org/2000/svg">
</g>
<g xmlns="http://www.w3.org/2000/svg">
</g>
<g xmlns="http://www.w3.org/2000/svg">
</g>
<g xmlns="http://www.w3.org/2000/svg">
</g>
<g xmlns="http://www.w3.org/2000/svg">
</g>
<g xmlns="http://www.w3.org/2000/svg">
</g>
<g xmlns="http://www.w3.org/2000/svg">
</g>
<g xmlns="http://www.w3.org/2000/svg">
</g>
<g xmlns="http://www.w3.org/2000/svg">
</g>
<g xmlns="http://www.w3.org/2000/svg">
</g>
<g xmlns="http://www.w3.org/2000/svg">
</g>
<g xmlns="http://www.w3.org/2000/svg">
</g>
<g xmlns="http://www.w3.org/2000/svg">
</g>
<g xmlns="http://www.w3.org/2000/svg">
</g>
</g></svg>
