<svg width="770" height="525" viewBox="0 0 770 525" fill="none" xmlns="http://www.w3.org/2000/svg">
<g clip-path="url(#clip0)">
<path d="M174.757 13.6267C178.52 13.6267 181.57 10.5763 181.57 6.81334C181.57 3.05043 178.52 -9.53674e-06 174.757 -9.53674e-06C170.994 -9.53674e-06 167.944 3.05043 167.944 6.81334C167.944 10.5763 170.994 13.6267 174.757 13.6267Z" fill="#E6E6E6"/>
<path d="M209.246 13.6267C213.009 13.6267 216.059 10.5763 216.059 6.81334C216.059 3.05043 213.009 -9.53674e-06 209.246 -9.53674e-06C205.483 -9.53674e-06 202.433 3.05043 202.433 6.81334C202.433 10.5763 205.483 13.6267 209.246 13.6267Z" fill="#E6E6E6"/>
<path d="M243.735 13.6267C247.498 13.6267 250.549 10.5763 250.549 6.81334C250.549 3.05043 247.498 -9.53674e-06 243.735 -9.53674e-06C239.972 -9.53674e-06 236.922 3.05043 236.922 6.81334C236.922 10.5763 239.972 13.6267 243.735 13.6267Z" fill="#E6E6E6"/>
<path d="M278.224 13.6267C281.987 13.6267 285.038 10.5763 285.038 6.81334C285.038 3.05043 281.987 -9.53674e-06 278.224 -9.53674e-06C274.461 -9.53674e-06 271.411 3.05043 271.411 6.81334C271.411 10.5763 274.461 13.6267 278.224 13.6267Z" fill="#E6E6E6"/>
<path d="M312.713 13.6267C316.476 13.6267 319.527 10.5763 319.527 6.81334C319.527 3.05043 316.476 -9.53674e-06 312.713 -9.53674e-06C308.95 -9.53674e-06 305.9 3.05043 305.9 6.81334C305.9 10.5763 308.95 13.6267 312.713 13.6267Z" fill="#E6E6E6"/>
<path d="M174.757 48.5486C178.52 48.5486 181.57 45.4982 181.57 41.7353C181.57 37.9724 178.52 34.9219 174.757 34.9219C170.994 34.9219 167.944 37.9724 167.944 41.7353C167.944 45.4982 170.994 48.5486 174.757 48.5486Z" fill="#E6E6E6"/>
<path d="M209.246 48.5486C213.009 48.5486 216.059 45.4982 216.059 41.7353C216.059 37.9724 213.009 34.9219 209.246 34.9219C205.483 34.9219 202.433 37.9724 202.433 41.7353C202.433 45.4982 205.483 48.5486 209.246 48.5486Z" fill="#E6E6E6"/>
<path d="M243.735 48.5486C247.498 48.5486 250.549 45.4982 250.549 41.7353C250.549 37.9724 247.498 34.9219 243.735 34.9219C239.972 34.9219 236.922 37.9724 236.922 41.7353C236.922 45.4982 239.972 48.5486 243.735 48.5486Z" fill="#E6E6E6"/>
<path d="M278.224 48.5486C281.987 48.5486 285.038 45.4982 285.038 41.7353C285.038 37.9724 281.987 34.9219 278.224 34.9219C274.461 34.9219 271.411 37.9724 271.411 41.7353C271.411 45.4982 274.461 48.5486 278.224 48.5486Z" fill="#FF8D8D"/>
<path d="M312.713 48.5486C316.476 48.5486 319.527 45.4982 319.527 41.7353C319.527 37.9724 316.476 34.9219 312.713 34.9219C308.95 34.9219 305.9 37.9724 305.9 41.7353C305.9 45.4982 308.95 48.5486 312.713 48.5486Z" fill="#E6E6E6"/>
<path d="M381.691 48.5486C385.454 48.5486 388.505 45.4982 388.505 41.7353C388.505 37.9724 385.454 34.9219 381.691 34.9219C377.928 34.9219 374.878 37.9724 374.878 41.7353C374.878 45.4982 377.928 48.5486 381.691 48.5486Z" fill="#E6E6E6"/>
<path d="M174.757 83.4706C178.52 83.4706 181.57 80.4202 181.57 76.6572C181.57 72.8943 178.52 69.8439 174.757 69.8439C170.994 69.8439 167.944 72.8943 167.944 76.6572C167.944 80.4202 170.994 83.4706 174.757 83.4706Z" fill="#E6E6E6"/>
<path d="M209.246 83.4706C213.009 83.4706 216.059 80.4202 216.059 76.6572C216.059 72.8943 213.009 69.8439 209.246 69.8439C205.483 69.8439 202.433 72.8943 202.433 76.6572C202.433 80.4202 205.483 83.4706 209.246 83.4706Z" fill="#E6E6E6"/>
<path d="M243.735 83.4706C247.498 83.4706 250.549 80.4202 250.549 76.6572C250.549 72.8943 247.498 69.8439 243.735 69.8439C239.972 69.8439 236.922 72.8943 236.922 76.6572C236.922 80.4202 239.972 83.4706 243.735 83.4706Z" fill="#E6E6E6"/>
<path d="M278.224 83.4706C281.987 83.4706 285.038 80.4202 285.038 76.6572C285.038 72.8943 281.987 69.8439 278.224 69.8439C274.461 69.8439 271.411 72.8943 271.411 76.6572C271.411 80.4202 274.461 83.4706 278.224 83.4706Z" fill="#E6E6E6"/>
<path d="M312.713 83.4706C316.476 83.4706 319.527 80.4202 319.527 76.6572C319.527 72.8943 316.476 69.8439 312.713 69.8439C308.95 69.8439 305.9 72.8943 305.9 76.6572C305.9 80.4202 308.95 83.4706 312.713 83.4706Z" fill="#E6E6E6"/>
<path d="M174.757 118.393C178.52 118.393 181.57 115.342 181.57 111.579C181.57 107.816 178.52 104.766 174.757 104.766C170.994 104.766 167.944 107.816 167.944 111.579C167.944 115.342 170.994 118.393 174.757 118.393Z" fill="#E6E6E6"/>
<path d="M209.246 118.393C213.009 118.393 216.059 115.342 216.059 111.579C216.059 107.816 213.009 104.766 209.246 104.766C205.483 104.766 202.433 107.816 202.433 111.579C202.433 115.342 205.483 118.393 209.246 118.393Z" fill="#E6E6E6"/>
<path d="M243.735 118.393C247.498 118.393 250.549 115.342 250.549 111.579C250.549 107.816 247.498 104.766 243.735 104.766C239.972 104.766 236.922 107.816 236.922 111.579C236.922 115.342 239.972 118.393 243.735 118.393Z" fill="#E6E6E6"/>
<path d="M278.224 118.393C281.987 118.393 285.038 115.342 285.038 111.579C285.038 107.816 281.987 104.766 278.224 104.766C274.461 104.766 271.411 107.816 271.411 111.579C271.411 115.342 274.461 118.393 278.224 118.393Z" fill="#E6E6E6"/>
<path d="M312.713 118.393C316.476 118.393 319.527 115.342 319.527 111.579C319.527 107.816 316.476 104.766 312.713 104.766C308.95 104.766 305.9 107.816 305.9 111.579C305.9 115.342 308.95 118.393 312.713 118.393Z" fill="#E6E6E6"/>
<path d="M347.202 118.393C350.965 118.393 354.016 115.342 354.016 111.579C354.016 107.816 350.965 104.766 347.202 104.766C343.439 104.766 340.389 107.816 340.389 111.579C340.389 115.342 343.439 118.393 347.202 118.393Z" fill="#E6E6E6"/>
<path d="M381.691 118.393C385.454 118.393 388.505 115.342 388.505 111.579C388.505 107.816 385.454 104.766 381.691 104.766C377.928 104.766 374.878 107.816 374.878 111.579C374.878 115.342 377.928 118.393 381.691 118.393Z" fill="#E6E6E6"/>
<path d="M416.18 118.393C419.943 118.393 422.994 115.342 422.994 111.579C422.994 107.816 419.943 104.766 416.18 104.766C412.417 104.766 409.367 107.816 409.367 111.579C409.367 115.342 412.417 118.393 416.18 118.393Z" fill="#E6E6E6"/>
<path d="M450.669 118.393C454.432 118.393 457.483 115.342 457.483 111.579C457.483 107.816 454.432 104.766 450.669 104.766C446.907 104.766 443.856 107.816 443.856 111.579C443.856 115.342 446.907 118.393 450.669 118.393Z" fill="#E6E6E6"/>
<path d="M485.158 118.393C488.921 118.393 491.972 115.342 491.972 111.579C491.972 107.816 488.921 104.766 485.158 104.766C481.396 104.766 478.345 107.816 478.345 111.579C478.345 115.342 481.396 118.393 485.158 118.393Z" fill="#E6E6E6"/>
<path d="M312.713 153.314C316.476 153.314 319.527 150.264 319.527 146.501C319.527 142.738 316.476 139.688 312.713 139.688C308.95 139.688 305.9 142.738 305.9 146.501C305.9 150.264 308.95 153.314 312.713 153.314Z" fill="#E6E6E6"/>
<path d="M347.202 153.314C350.965 153.314 354.016 150.264 354.016 146.501C354.016 142.738 350.965 139.688 347.202 139.688C343.439 139.688 340.389 142.738 340.389 146.501C340.389 150.264 343.439 153.314 347.202 153.314Z" fill="#FF8D8D"/>
<path d="M381.691 153.314C385.454 153.314 388.505 150.264 388.505 146.501C388.505 142.738 385.454 139.688 381.691 139.688C377.928 139.688 374.878 142.738 374.878 146.501C374.878 150.264 377.928 153.314 381.691 153.314Z" fill="#E6E6E6"/>
<path d="M416.18 153.314C419.943 153.314 422.994 150.264 422.994 146.501C422.994 142.738 419.943 139.688 416.18 139.688C412.417 139.688 409.367 142.738 409.367 146.501C409.367 150.264 412.417 153.314 416.18 153.314Z" fill="#E6E6E6"/>
<path d="M450.669 153.314C454.432 153.314 457.483 150.264 457.483 146.501C457.483 142.738 454.432 139.688 450.669 139.688C446.907 139.688 443.856 142.738 443.856 146.501C443.856 150.264 446.907 153.314 450.669 153.314Z" fill="#E6E6E6"/>
<path d="M485.158 153.314C488.921 153.314 491.972 150.264 491.972 146.501C491.972 142.738 488.921 139.688 485.158 139.688C481.396 139.688 478.345 142.738 478.345 146.501C478.345 150.264 481.396 153.314 485.158 153.314Z" fill="#E6E6E6"/>
<path d="M312.713 188.236C316.476 188.236 319.527 185.186 319.527 181.423C319.527 177.66 316.476 174.61 312.713 174.61C308.95 174.61 305.9 177.66 305.9 181.423C305.9 185.186 308.95 188.236 312.713 188.236Z" fill="#E6E6E6"/>
<path d="M347.202 188.236C350.965 188.236 354.016 185.186 354.016 181.423C354.016 177.66 350.965 174.61 347.202 174.61C343.439 174.61 340.389 177.66 340.389 181.423C340.389 185.186 343.439 188.236 347.202 188.236Z" fill="#E6E6E6"/>
<path d="M381.691 188.236C385.454 188.236 388.505 185.186 388.505 181.423C388.505 177.66 385.454 174.61 381.691 174.61C377.928 174.61 374.878 177.66 374.878 181.423C374.878 185.186 377.928 188.236 381.691 188.236Z" fill="#E6E6E6"/>
<path d="M416.18 188.236C419.943 188.236 422.994 185.186 422.994 181.423C422.994 177.66 419.943 174.61 416.18 174.61C412.417 174.61 409.367 177.66 409.367 181.423C409.367 185.186 412.417 188.236 416.18 188.236Z" fill="#E6E6E6"/>
<path d="M450.669 188.236C454.432 188.236 457.483 185.186 457.483 181.423C457.483 177.66 454.432 174.61 450.669 174.61C446.907 174.61 443.856 177.66 443.856 181.423C443.856 185.186 446.907 188.236 450.669 188.236Z" fill="#FF8D8D"/>
<path d="M485.158 188.236C488.921 188.236 491.972 185.186 491.972 181.423C491.972 177.66 488.921 174.61 485.158 174.61C481.396 174.61 478.345 177.66 478.345 181.423C478.345 185.186 481.396 188.236 485.158 188.236Z" fill="#E6E6E6"/>
<path d="M312.713 223.158C316.476 223.158 319.527 220.108 319.527 216.345C319.527 212.582 316.476 209.532 312.713 209.532C308.95 209.532 305.9 212.582 305.9 216.345C305.9 220.108 308.95 223.158 312.713 223.158Z" fill="#E6E6E6"/>
<path d="M347.202 223.158C350.965 223.158 354.016 220.108 354.016 216.345C354.016 212.582 350.965 209.532 347.202 209.532C343.439 209.532 340.389 212.582 340.389 216.345C340.389 220.108 343.439 223.158 347.202 223.158Z" fill="#E6E6E6"/>
<path d="M381.691 223.158C385.454 223.158 388.505 220.108 388.505 216.345C388.505 212.582 385.454 209.532 381.691 209.532C377.928 209.532 374.878 212.582 374.878 216.345C374.878 220.108 377.928 223.158 381.691 223.158Z" fill="#E6E6E6"/>
<path d="M416.18 223.158C419.943 223.158 422.994 220.108 422.994 216.345C422.994 212.582 419.943 209.532 416.18 209.532C412.417 209.532 409.367 212.582 409.367 216.345C409.367 220.108 412.417 223.158 416.18 223.158Z" fill="#E6E6E6"/>
<path d="M450.669 223.158C454.432 223.158 457.483 220.108 457.483 216.345C457.483 212.582 454.432 209.532 450.669 209.532C446.907 209.532 443.856 212.582 443.856 216.345C443.856 220.108 446.907 223.158 450.669 223.158Z" fill="#E6E6E6"/>
<path d="M485.158 223.158C488.921 223.158 491.972 220.108 491.972 216.345C491.972 212.582 488.921 209.532 485.158 209.532C481.396 209.532 478.345 212.582 478.345 216.345C478.345 220.108 481.396 223.158 485.158 223.158Z" fill="#E6E6E6"/>
<path d="M174.757 258.08C178.52 258.08 181.57 255.03 181.57 251.267C181.57 247.504 178.52 244.454 174.757 244.454C170.994 244.454 167.944 247.504 167.944 251.267C167.944 255.03 170.994 258.08 174.757 258.08Z" fill="#E6E6E6"/>
<path d="M209.246 258.08C213.009 258.08 216.059 255.03 216.059 251.267C216.059 247.504 213.009 244.454 209.246 244.454C205.483 244.454 202.433 247.504 202.433 251.267C202.433 255.03 205.483 258.08 209.246 258.08Z" fill="#E6E6E6"/>
<path d="M243.735 258.08C247.498 258.08 250.549 255.03 250.549 251.267C250.549 247.504 247.498 244.454 243.735 244.454C239.972 244.454 236.922 247.504 236.922 251.267C236.922 255.03 239.972 258.08 243.735 258.08Z" fill="#E6E6E6"/>
<path d="M278.224 258.08C281.987 258.08 285.038 255.03 285.038 251.267C285.038 247.504 281.987 244.454 278.224 244.454C274.461 244.454 271.411 247.504 271.411 251.267C271.411 255.03 274.461 258.08 278.224 258.08Z" fill="#E6E6E6"/>
<path d="M312.713 258.08C316.476 258.08 319.527 255.03 319.527 251.267C319.527 247.504 316.476 244.454 312.713 244.454C308.95 244.454 305.9 247.504 305.9 251.267C305.9 255.03 308.95 258.08 312.713 258.08Z" fill="#E6E6E6"/>
<path d="M347.202 258.08C350.965 258.08 354.016 255.03 354.016 251.267C354.016 247.504 350.965 244.454 347.202 244.454C343.439 244.454 340.389 247.504 340.389 251.267C340.389 255.03 343.439 258.08 347.202 258.08Z" fill="#E6E6E6"/>
<path d="M381.691 258.08C385.454 258.08 388.505 255.03 388.505 251.267C388.505 247.504 385.454 244.454 381.691 244.454C377.928 244.454 374.878 247.504 374.878 251.267C374.878 255.03 377.928 258.08 381.691 258.08Z" fill="#E6E6E6"/>
<path d="M416.18 258.08C419.943 258.08 422.994 255.03 422.994 251.267C422.994 247.504 419.943 244.454 416.18 244.454C412.417 244.454 409.367 247.504 409.367 251.267C409.367 255.03 412.417 258.08 416.18 258.08Z" fill="#E6E6E6"/>
<path d="M450.669 258.08C454.432 258.08 457.483 255.03 457.483 251.267C457.483 247.504 454.432 244.454 450.669 244.454C446.907 244.454 443.856 247.504 443.856 251.267C443.856 255.03 446.907 258.08 450.669 258.08Z" fill="#E6E6E6"/>
<path d="M485.158 258.08C488.921 258.08 491.972 255.03 491.972 251.267C491.972 247.504 488.921 244.454 485.158 244.454C481.396 244.454 478.345 247.504 478.345 251.267C478.345 255.03 481.396 258.08 485.158 258.08Z" fill="#E6E6E6"/>
<path d="M174.753 293.001C178.516 293.001 181.566 289.951 181.566 286.188C181.566 282.425 178.516 279.375 174.753 279.375C170.99 279.375 167.94 282.425 167.94 286.188C167.94 289.951 170.99 293.001 174.753 293.001Z" fill="#E6E6E6"/>
<path d="M209.246 293.002C213.009 293.002 216.059 289.952 216.059 286.189C216.059 282.426 213.009 279.376 209.246 279.376C205.483 279.376 202.433 282.426 202.433 286.189C202.433 289.952 205.483 293.002 209.246 293.002Z" fill="#E6E6E6"/>
<path d="M174.753 327.923C178.516 327.923 181.566 324.872 181.566 321.11C181.566 317.347 178.516 314.296 174.753 314.296C170.99 314.296 167.94 317.347 167.94 321.11C167.94 324.872 170.99 327.923 174.753 327.923Z" fill="#E6E6E6"/>
<path d="M209.246 327.924C213.009 327.924 216.059 324.874 216.059 321.111C216.059 317.348 213.009 314.298 209.246 314.298C205.483 314.298 202.433 317.348 202.433 321.111C202.433 324.874 205.483 327.924 209.246 327.924Z" fill="#E6E6E6"/>
<path d="M278.224 327.924C281.987 327.924 285.038 324.874 285.038 321.111C285.038 317.348 281.987 314.298 278.224 314.298C274.461 314.298 271.411 317.348 271.411 321.111C271.411 324.874 274.461 327.924 278.224 327.924Z" fill="#E6E6E6"/>
<path d="M622.001 80.3839H352C350.674 80.3824 349.404 79.8551 348.466 78.9177C347.529 77.9804 347.002 76.7095 347 75.3839V8.40836C347.002 7.08276 347.529 5.8119 348.466 4.87455C349.404 3.9372 350.674 3.40992 352 3.40836H622.001C623.326 3.40992 624.597 3.9372 625.534 4.87455C626.472 5.8119 626.999 7.08276 627.001 8.40836V75.3839C626.999 76.7095 626.472 77.9804 625.534 78.9177C624.597 79.8551 623.326 80.3824 622.001 80.3839ZM352 5.40836C351.205 5.40923 350.442 5.72558 349.88 6.288C349.317 6.85042 349.001 7.61298 349 8.40836V75.3839C349.001 76.1793 349.317 76.9419 349.88 77.5043C350.442 78.0667 351.205 78.3831 352 78.3839H622.001C622.796 78.3831 623.558 78.0667 624.121 77.5043C624.683 76.9419 625 76.1793 625.001 75.3839V8.40836C625 7.61298 624.683 6.85042 624.121 6.288C623.558 5.72558 622.796 5.40923 622.001 5.40836H352Z" fill="#E6E6E6"/>
<path d="M387 62.8959C398.598 62.8959 408 53.4939 408 41.8959C408 30.2979 398.598 20.8959 387 20.8959C375.402 20.8959 366 30.2979 366 41.8959C366 53.4939 375.402 62.8959 387 62.8959Z" fill="#FF8D8D"/>
<path d="M435.5 27.8959C434.572 27.8959 433.681 28.2646 433.025 28.921C432.369 29.5774 432 30.4676 432 31.3959C432 32.3241 432.369 33.2144 433.025 33.8707C433.681 34.5271 434.572 34.8959 435.5 34.8959H528.5C529.428 34.8959 530.319 34.5271 530.975 33.8707C531.631 33.2144 532 32.3241 532 31.3959C532 30.4676 531.631 29.5774 530.975 28.921C530.319 28.2646 529.428 27.8959 528.5 27.8959H435.5Z" fill="#E6E6E6"/>
<path d="M435.5 48.8959C434.572 48.8959 433.681 49.2646 433.025 49.921C432.369 50.5774 432 51.4676 432 52.3959C432 53.3241 432.369 54.2144 433.025 54.8707C433.681 55.5271 434.572 55.8959 435.5 55.8959H600.5C601.428 55.8959 602.319 55.5271 602.975 54.8707C603.631 54.2144 604 53.3241 604 52.3959C604 51.4676 603.631 50.5774 602.975 49.921C602.319 49.2646 601.428 48.8959 600.5 48.8959H435.5Z" fill="#E6E6E6"/>
<path d="M275 216.384H5C3.67439 216.382 2.40353 215.855 1.46619 214.918C0.528841 213.98 0.00155353 212.71 0 211.384V144.408C0.00155353 143.083 0.528841 141.812 1.46619 140.875C2.40353 139.937 3.67439 139.41 5 139.408H275C276.326 139.41 277.597 139.937 278.534 140.875C279.472 141.812 279.999 143.083 280 144.408V211.384C279.999 212.71 279.472 213.98 278.534 214.918C277.597 215.855 276.326 216.382 275 216.384ZM5 141.408C4.20462 141.409 3.44206 141.726 2.87964 142.288C2.31722 142.85 2.00087 143.613 2 144.408V211.384C2.00087 212.179 2.31722 212.942 2.87964 213.504C3.44206 214.067 4.20462 214.383 5 214.384H275C275.796 214.383 276.558 214.067 277.121 213.504C277.683 212.942 278 212.179 278 211.384V144.408C278 143.613 277.683 142.85 277.121 142.288C276.558 141.726 275.796 141.409 275 141.408H5Z" fill="#E6E6E6"/>
<path d="M40 198.896C51.598 198.896 61 189.494 61 177.896C61 166.298 51.598 156.896 40 156.896C28.402 156.896 19 166.298 19 177.896C19 189.494 28.402 198.896 40 198.896Z" fill="#FF8D8D"/>
<path d="M88.5 163.896C87.5717 163.896 86.6815 164.265 86.0251 164.921C85.3687 165.577 85 166.468 85 167.396C85 168.324 85.3687 169.214 86.0251 169.871C86.6815 170.527 87.5717 170.896 88.5 170.896H185.5C186.428 170.896 187.319 170.527 187.975 169.871C188.631 169.214 189 168.324 189 167.396C189 166.468 188.631 165.577 187.975 164.921C187.319 164.265 186.428 163.896 185.5 163.896H88.5Z" fill="#E6E6E6"/>
<path d="M88.5 184.896C87.5717 184.896 86.6815 185.265 86.0251 185.921C85.3687 186.577 85 187.468 85 188.396C85 189.324 85.3687 190.214 86.0251 190.871C86.6815 191.527 87.5717 191.896 88.5 191.896H253.5C254.428 191.896 255.319 191.527 255.975 190.871C256.631 190.214 257 189.324 257 188.396C257 187.468 256.631 186.577 255.975 185.921C255.319 185.265 254.428 184.896 253.5 184.896H88.5Z" fill="#E6E6E6"/>
<path d="M519 363.384H249C247.674 363.382 246.404 362.855 245.466 361.918C244.529 360.98 244.002 359.71 244 358.384V291.408C244.002 290.083 244.529 288.812 245.466 287.875C246.404 286.937 247.674 286.41 249 286.408H519C520.326 286.41 521.597 286.937 522.534 287.875C523.472 288.812 523.999 290.083 524 291.408V358.384C523.999 359.71 523.472 360.98 522.534 361.918C521.597 362.855 520.326 363.382 519 363.384ZM249 288.408C248.205 288.409 247.442 288.726 246.88 289.288C246.317 289.85 246.001 290.613 246 291.408V358.384C246.001 359.179 246.317 359.942 246.88 360.504C247.442 361.067 248.205 361.383 249 361.384H519C519.796 361.383 520.558 361.067 521.121 360.504C521.683 359.942 522 359.179 522 358.384V291.408C522 290.613 521.683 289.85 521.121 289.288C520.558 288.726 519.796 288.409 519 288.408H249Z" fill="#3F3D56"/>
<path d="M284 345.896C295.598 345.896 305 336.494 305 324.896C305 313.298 295.598 303.896 284 303.896C272.402 303.896 263 313.298 263 324.896C263 336.494 272.402 345.896 284 345.896Z" fill="#FF8D8D"/>
<path d="M332.5 310.896C331.572 310.896 330.681 311.265 330.025 311.921C329.369 312.577 329 313.468 329 314.396C329 315.324 329.369 316.214 330.025 316.871C330.681 317.527 331.572 317.896 332.5 317.896H421.5C422.428 317.896 423.319 317.527 423.975 316.871C424.631 316.214 425 315.324 425 314.396C425 313.468 424.631 312.577 423.975 311.921C423.319 311.265 422.428 310.896 421.5 310.896H332.5Z" fill="#E6E6E6"/>
<path d="M332.5 331.896C331.572 331.896 330.681 332.265 330.025 332.921C329.369 333.577 329 334.468 329 335.396C329 336.324 329.369 337.214 330.025 337.871C330.681 338.527 331.572 338.896 332.5 338.896H497.5C498.428 338.896 499.319 338.527 499.975 337.871C500.631 337.214 501 336.324 501 335.396C501 334.468 500.631 333.577 499.975 332.921C499.319 332.265 498.428 331.896 497.5 331.896H332.5Z" fill="#E6E6E6"/>
<path d="M664.249 346.398C652.524 381.575 604.555 344.266 604.555 344.266L617.346 211.019C636.534 196.095 656.788 208.887 656.788 208.887L664.249 346.398Z" fill="#E6E6E6"/>
<path d="M661.731 464.458L678.076 464.63L673.993 511.745L661.733 511.746L661.731 464.458Z" fill="#FFB8B8"/>
<path d="M658.605 507.742H682.749C686.829 507.747 690.74 509.37 693.624 512.254C696.509 515.139 698.132 519.05 698.136 523.129V523.629H658.605V507.742Z" fill="#2F2E41"/>
<path d="M617.421 464.458L599.327 464.457L605.159 511.745L617.419 511.746L617.421 464.458Z" fill="#FFB8B8"/>
<path d="M581.015 523.629V523.129C581.015 519.048 582.636 515.134 585.522 512.249C588.407 509.363 592.321 507.742 596.402 507.742L620.546 507.743L620.545 523.631L581.015 523.629Z" fill="#2F2E41"/>
<path d="M660.628 503.584L639.215 378.761L619.375 501.975L599.274 503.092L593.914 338.006L594.319 337.915C597.642 337.171 675.855 319.992 688.677 344.568L688.742 344.692L678.041 504.145L660.628 503.584Z" fill="#2F2E41"/>
<path d="M637.934 195.404C651.498 195.404 662.495 184.407 662.495 170.843C662.495 157.278 651.498 146.281 637.934 146.281C624.369 146.281 613.373 157.278 613.373 170.843C613.373 184.407 624.369 195.404 637.934 195.404Z" fill="#FFB8B8"/>
<path d="M658.568 356.925C655.689 356.127 653.614 352.821 652.039 346.519C651.767 345.433 626.267 236.808 647.832 217.128L652.802 203.32L659.605 207.855C662.012 207.877 686.626 208.5 688.729 224.278C690.789 239.721 696.395 343.191 690.76 349.627C690.649 349.768 690.509 349.884 690.349 349.965C690.189 350.046 690.012 350.091 689.833 350.096C684.122 350.096 682.389 343.759 681.981 341.74C680.624 342.302 676.579 344.369 669.933 351.015C665.816 355.132 662.588 357.106 659.921 357.106C659.464 357.107 659.008 357.046 658.568 356.925Z" fill="#2F2E41"/>
<path d="M605.267 351.015C598.619 344.367 594.574 342.301 593.218 341.74C592.811 343.76 591.078 350.096 585.367 350.096C585.187 350.091 585.011 350.046 584.851 349.965C584.691 349.884 584.55 349.768 584.44 349.627C578.805 343.191 584.411 239.721 586.47 224.278C588.574 208.5 613.188 207.877 615.595 207.855L622.397 203.32L627.368 217.128C648.932 236.806 623.433 345.433 623.161 346.519C621.586 352.821 619.511 356.127 616.632 356.925C616.192 357.046 615.736 357.107 615.279 357.106C612.612 357.106 609.384 355.132 605.267 351.015Z" fill="#2F2E41"/>
<path d="M658.211 184.872C662.366 181.883 665.513 177.7 667.233 172.88C668.952 168.059 669.164 162.829 667.838 157.885C666.513 152.942 663.714 148.519 659.814 145.204C655.914 141.89 651.097 139.842 646.004 139.332C643.743 139.106 641.308 139.14 639.433 137.855C637.768 136.715 636.871 134.736 635.34 133.42C634.368 132.668 633.251 132.125 632.059 131.824C630.867 131.524 629.626 131.473 628.414 131.674C625.994 132.091 623.648 132.862 621.452 133.961C616.005 136.39 610.216 139.378 607.738 144.801C605.591 149.499 606.539 155.292 609.577 159.469C612.773 163.602 617.431 166.353 622.594 167.154C627.726 167.921 632.966 167.449 637.879 165.778C641.12 164.758 644.32 163.368 647.717 163.254C650.368 163.166 652.985 163.868 655.236 165.271C657.487 166.674 659.269 168.715 660.357 171.134C661.445 173.553 661.788 176.241 661.344 178.856C660.9 181.471 659.688 183.894 657.862 185.818" fill="#2F2E41"/>
<path d="M524.341 330.981C525.759 330.948 527.157 330.637 528.455 330.064C529.752 329.491 530.924 328.668 531.903 327.642C532.883 326.616 533.651 325.407 534.163 324.084C534.675 322.762 534.922 321.351 534.889 319.933L549.212 295.767L538.146 285.621L523.058 309.431C520.274 309.699 517.702 311.036 515.884 313.161C514.066 315.286 513.143 318.033 513.309 320.825C513.475 323.617 514.718 326.235 516.776 328.13C518.833 330.024 521.545 331.046 524.341 330.981Z" fill="#FFB8B8"/>
<path d="M690.514 357.456C691.702 356.681 692.726 355.68 693.528 354.51C694.329 353.34 694.892 352.023 695.184 350.635C695.477 349.247 695.493 347.815 695.232 346.421C694.971 345.027 694.438 343.698 693.663 342.509L693.115 314.423L678.365 311.625L678.076 339.811C675.85 341.505 674.367 343.995 673.941 346.759C673.514 349.523 674.176 352.345 675.787 354.631C677.399 356.917 679.834 358.489 682.581 359.016C685.327 359.542 688.171 358.983 690.514 357.456Z" fill="#FFB8B8"/>
<path d="M528.699 292.124L528.532 291.858L528.697 291.592C550.181 257.094 595.276 213.999 595.729 213.568L595.872 213.432L601.442 213.375L607.463 228.375C605.588 231.981 555.067 302.485 548.396 307.161C547.865 307.529 547.262 307.78 546.627 307.9C545.993 308.02 545.34 308.004 544.711 307.855C543.599 307.599 542.542 307.148 541.587 306.524C535.43 302.711 529.014 292.623 528.699 292.124Z" fill="#2F2E41"/>
<path d="M675.558 331.49C674.959 331.286 674.409 330.96 673.943 330.532C673.477 330.105 673.105 329.585 672.851 329.006C669.634 321.501 683.42 226.704 684.008 222.672L684.12 221.909L688.78 224.863L688.826 225.064C688.963 225.669 702.538 286.061 698.859 326.19L698.832 326.477L698.571 326.598C698.01 326.858 686.703 332.051 679.167 332.051C677.94 332.083 676.717 331.893 675.558 331.49Z" fill="#2F2E41"/>
<path d="M768.411 524.375H502.411C502.146 524.375 501.892 524.269 501.704 524.082C501.517 523.894 501.411 523.64 501.411 523.375C501.411 523.11 501.517 522.855 501.704 522.668C501.892 522.48 502.146 522.375 502.411 522.375H768.411C768.677 522.375 768.931 522.48 769.119 522.668C769.306 522.855 769.411 523.11 769.411 523.375C769.411 523.64 769.306 523.894 769.119 524.082C768.931 524.269 768.677 524.375 768.411 524.375Z" fill="#3F3D56"/>
</g>
<defs>
<clipPath id="clip0">
<rect width="769.411" height="524.375" fill="white"/>
</clipPath>
</defs>
</svg>
