<svg width="923" height="586" viewBox="0 0 923 586" fill="none" xmlns="http://www.w3.org/2000/svg">
<g clip-path="url(#clip0)">
<g opacity="0.5">
<path opacity="0.5" d="M215.82 55.19C216.82 50.62 217.39 46.89 216.98 45.01L216.57 45.07L217.2 44.79L218.9 43.22H218.95L220.35 41.93C222.714 43.3973 225.368 44.3364 228.128 44.6828C230.889 45.0293 233.692 44.775 236.346 43.9374C238.999 43.0998 241.44 41.6986 243.502 39.8298C245.563 37.961 247.197 35.6687 248.29 33.11C249.98 34.11 251.29 34.54 251.51 33.66C252.809 29.6549 253.51 25.4799 253.59 21.27C253.597 19.7739 253.439 18.2817 253.12 16.82C250.99 7.32999 241.26 0.969988 231.58 0.0699884C224.15 -0.620012 216.03 1.69 211.53 7.64C207.63 12.8 199.96 16.26 196.53 21.74C193.76 26.16 194.62 32.09 193.31 37.18C191.889 38.103 190.52 39.1045 189.21 40.18C186.086 42.2653 183.393 44.9341 181.28 48.04C177.912 51.9623 174.818 56.1122 172.02 60.46C157.16 83.29 148.16 90.71 143.09 92.81L185.71 93.08C192.835 106.491 202.718 118.242 214.71 127.56L214.97 127.42L215.15 127.57L222.21 123.66C215.24 112.648 209.676 100.805 205.65 88.41C206.65 85.61 207.94 81.81 209.32 77.59C219.14 90.81 233.39 105.25 252.8 114.07L255.95 108.47C255.95 108.47 230.86 86.61 215.82 55.19Z" fill="url(#paint0_linear)"/>
<path opacity="0.5" d="M143.11 92.95H137.54C137.54 92.95 139.07 94.57 143.11 92.95Z" fill="url(#paint1_linear)"/>
</g>
<path d="M205.84 73.18C214.84 86.06 228.55 100.95 247.84 109.74L250.71 104.63C250.71 104.63 216.71 74.91 206.76 36.05L205.76 36.92C197.28 44.3 197.28 60.9 205.84 73.18Z" fill="#4D8AF0"/>
<path opacity="0.05" d="M205.84 73.18C214.84 86.06 228.55 100.95 247.84 109.74L250.71 104.63C250.71 104.63 216.71 74.91 206.76 36.05L205.76 36.92C197.28 44.3 197.28 60.9 205.84 73.18Z" fill="black"/>
<path d="M210.07 31.31L203.45 35.15L196.16 46.33L206.56 50.41L215.41 46.46L221.46 40.88L210.07 31.31Z" fill="#FDA57D"/>
<path d="M203.64 35.76C203.64 35.76 191.16 34.76 174.2 60.84C149.85 98.25 142.73 90.32 142.73 90.32L203.29 90.7C203.29 90.7 216.76 53.88 215.2 46.7C215.21 46.66 203.56 48.95 203.64 35.76Z" fill="#4D8AF0"/>
<path opacity="0.1" d="M209.89 31.18C210.62 36.47 212.66 42.35 217.01 45.06L220.25 42.06L209.89 31.16V31.18Z" fill="black"/>
<path d="M245.18 28.9864C245.241 19.2388 237.388 11.2871 227.641 11.2258C217.893 11.1646 209.942 19.017 209.88 28.7646C209.819 38.5122 217.671 46.4639 227.419 46.5252C237.167 46.5864 245.118 38.734 245.18 28.9864Z" fill="#FDA57D"/>
<path opacity="0.1" d="M246.72 36.34C248.1 31.47 249.3 26.34 248.19 21.34C246.24 12.68 237.37 6.88 228.54 6.06C221.76 5.43 214.35 7.54 210.25 12.97C206.69 17.67 206.11 24.03 202.98 29.03C200.08 33.66 195.13 36.91 192.98 41.92C192.617 42.5892 192.51 43.3678 192.68 44.11C193.07 45.26 194.44 45.66 195.6 46.01C198.448 46.8767 201.089 48.3151 203.362 50.2374C205.635 52.1597 207.493 54.5255 208.82 57.19C208.49 47.83 215.25 39.9 221.63 33.05C224.63 29.85 229.63 25.15 234.13 28.14C234.74 28.62 245.96 39.02 246.72 36.34Z" fill="black"/>
<path d="M212.94 56.87C212.94 56.87 216.49 66.52 208.85 69.68Z" fill="#FF8D8D"/>
<path d="M891 83.79H0V447H891V83.79Z" fill="url(#paint2_linear)"/>
<path d="M885 89H7V441H885V89Z" fill="white"/>
<path d="M215 124V217H253V242C264 223 280 217 280 217H432V124H215Z" fill="#FF8D8D"/>
<path d="M66 277V349H104V374C115 355 131 349 131 349H300V277H66Z" fill="#FF8D8D"/>
<path d="M840 172V244H802V269C791 250 775 244 775 244H606V172H840Z" fill="#E0E0E0"/>
<path d="M840 367V408H826V433C815 414 799 408 799 408H406V367H840Z" fill="#E0E0E0"/>
<path d="M821 394C824.866 394 828 390.866 828 387C828 383.134 824.866 380 821 380C817.134 380 814 383.134 814 387C814 390.866 817.134 394 821 394Z" fill="white"/>
<path d="M801 394C804.866 394 808 390.866 808 387C808 383.134 804.866 380 801 380C797.134 380 794 383.134 794 387C794 390.866 797.134 394 801 394Z" fill="white"/>
<path d="M781 394C784.866 394 788 390.866 788 387C788 383.134 784.866 380 781 380C777.134 380 774 383.134 774 387C774 390.866 777.134 394 781 394Z" fill="white"/>
<path d="M761 394C764.866 394 768 390.866 768 387C768 383.134 764.866 380 761 380C757.134 380 754 383.134 754 387C754 390.866 757.134 394 761 394Z" fill="white"/>
<path opacity="0.1" d="M179.1 71.95C184.865 91.8292 196.765 109.378 213.1 122.09L219.54 118.52C219.54 118.52 192.12 77.84 200.4 38.18L198.64 38.59C195.113 39.4046 191.79 40.9307 188.874 43.0747C185.958 45.2188 183.51 47.9356 181.68 51.0589C179.851 54.1821 178.679 57.6459 178.235 61.2382C177.791 64.8305 178.086 68.4755 179.1 71.95V71.95Z" fill="black"/>
<path d="M179.5 71.95C185.265 91.8292 197.165 109.378 213.5 122.09L219.94 118.52C219.94 118.52 192.5 77.8 200.82 38.14L199.06 38.55C195.527 39.3618 192.197 40.8874 189.276 43.0332C186.354 45.1789 183.902 47.8994 182.07 51.0275C180.238 54.1556 179.065 57.6252 178.623 61.2232C178.181 64.8212 178.48 68.4716 179.5 71.95V71.95Z" fill="#4D8AF0"/>
<path d="M246.72 35.95C248.1 31.08 249.3 25.95 248.19 20.95C246.24 12.29 237.37 6.49 228.54 5.67C221.76 5.04 214.35 7.15 210.25 12.58C206.69 17.28 199.7 20.44 196.57 25.44C193.67 30.07 195.13 36.51 192.95 41.53C192.587 42.1992 192.48 42.9778 192.65 43.72C193.04 44.87 194.41 45.27 195.57 45.62C198.418 46.4867 201.059 47.9251 203.332 49.8474C205.605 51.7697 207.462 54.1355 208.79 56.8C208.46 47.44 215.22 39.51 221.6 32.66C224.6 29.46 229.6 24.76 234.1 27.75C234.74 28.22 245.96 38.62 246.72 35.95Z" fill="#333333"/>
<path d="M213.67 122.26C213.67 122.26 223.01 136.26 225.02 130.26C227.03 124.26 220.35 118.26 220.35 118.26L213.67 122.26Z" fill="#FDA57D"/>
<path d="M223.642 34.5165C224.795 32.2098 224.93 29.9392 223.942 29.4451C222.954 28.9511 221.218 30.4206 220.064 32.7274C218.91 35.0341 218.776 37.3047 219.764 37.7987C220.752 38.2928 222.488 36.8233 223.642 34.5165Z" fill="#FDA57D"/>
<g opacity="0.5">
<path opacity="0.5" d="M895.44 382.15C906.22 399.95 908.94 413.73 908.94 413.73C912.14 356.73 894.79 377.03 893.11 377.99V377.92L887.31 381.27C884.837 378.785 881.486 377.373 877.98 377.34C875.497 377.347 873.068 378.066 870.98 379.41C866.85 379.51 863.55 381.61 863.55 384.21C863.554 384.63 863.642 385.045 863.81 385.43C861.974 387.444 860.722 389.921 860.188 392.593C859.654 395.265 859.858 398.033 860.778 400.598C861.698 403.163 863.3 405.429 865.411 407.152C867.522 408.876 870.063 409.992 872.76 410.38L874.29 421.26L871.87 423.16C870.373 424.318 869.139 425.781 868.25 427.451C867.36 429.121 866.835 430.962 866.71 432.85C866.48 436.85 868.14 441.49 875.71 443.85C875.71 443.85 875.58 445.24 875.33 447.44L862.53 473.04C862.53 473.04 857.41 484.77 862.9 485.12C870.79 483.75 869.42 480.66 870.45 477.91L871.05 475.91H874.05C871.6 489.31 863.6 535.39 864.4 562.53V570.38L863.89 574.27L849.15 578.69C848.288 578.95 847.55 579.515 847.074 580.279C846.597 581.042 846.415 581.954 846.56 582.842C846.706 583.73 847.17 584.536 847.865 585.107C848.56 585.679 849.44 585.979 850.34 585.95L871.17 585.26C872.129 585.226 873.039 584.822 873.706 584.132C874.374 583.442 874.748 582.52 874.75 581.56V570.95H878.5V562.48L882.27 517.29L882.76 516.13L883.21 522L900.16 559.66L903.93 566.25L905.57 565.37L905.05 571.56L898.19 577.56C897.589 578.083 897.172 578.785 897.001 579.563C896.83 580.341 896.914 581.153 897.24 581.88C897.445 582.331 897.738 582.736 898.103 583.072C898.467 583.407 898.894 583.667 899.36 583.835C899.826 584.002 900.321 584.075 900.816 584.049C901.31 584.022 901.795 583.897 902.24 583.68L920.94 574.48C921.802 574.054 922.465 573.311 922.789 572.406C923.114 571.502 923.075 570.506 922.68 569.63L921.03 565.98C920.792 565.456 920.435 564.995 919.987 564.634C919.539 564.273 919.012 564.022 918.45 563.9L914.91 560.36L916.13 559.7L913.31 553.11L896.36 513.57L895.66 491.31C898.261 489.757 900.334 487.456 901.608 484.707C902.881 481.958 903.297 478.889 902.8 475.9H903.89C903.89 475.9 901.49 461.9 900.24 446.71L900.12 445.23V442.95C900.12 442.95 899.99 442.23 899.77 441.07C898.44 426.07 896.38 414.07 885.14 412.74L885.06 412.81V408.18C887.36 406.58 889.229 404.437 890.501 401.94C891.773 399.444 892.408 396.671 892.35 393.87C892.36 390.84 891.61 387.856 890.17 385.19L895.42 382.19L895.44 382.15Z" fill="url(#paint3_linear)"/>
</g>
<path d="M878.33 412.4C886.051 412.4 892.31 405.25 892.31 396.43C892.31 387.61 886.051 380.46 878.33 380.46C870.609 380.46 864.35 387.61 864.35 396.43C864.35 405.25 870.609 412.4 878.33 412.4Z" fill="#795548"/>
<path d="M875.2 566.37V574.59H864.24L865.15 567.59L875.2 566.37Z" fill="#FDA57D"/>
<path d="M905.33 559.95L904.42 570.95H905.03C909.344 570.951 913.507 569.367 916.73 566.5L919.94 563.64L911.72 555.42L905.33 559.95Z" fill="#FDA57D"/>
<path d="M882.5 508.85L883.41 520.72L899.85 557.24L912.63 550.85L896.2 512.5L895.28 483.29H880.67L882.5 508.85Z" fill="#4D8AF0"/>
<path opacity="0.05" d="M882.5 508.85L883.41 520.72L899.85 557.24L912.63 550.85L896.2 512.5L895.28 483.29H880.67L882.5 508.85Z" fill="black"/>
<path d="M878.85 442.21L863.33 473.21C863.33 473.21 858.33 484.59 863.69 484.92C871.34 483.59 870.01 480.59 871.01 477.92L880.67 444.92L878.85 442.21Z" fill="#FDA57D"/>
<path d="M875.45 412.67C883.519 412.67 890.06 406.129 890.06 398.06C890.06 389.991 883.519 383.45 875.45 383.45C867.381 383.45 860.84 389.991 860.84 398.06C860.84 406.129 867.381 412.67 875.45 412.67Z" fill="#FDA57D"/>
<path d="M885.24 419.38L875 424.72L872.46 406.6H885.24V419.38Z" fill="#FDA57D"/>
<path d="M875.2 472.34C875.2 472.34 864.2 528.94 865.2 559.99H878.89L882.54 516.17L892.54 492.43C892.54 492.43 906.23 487.87 901.67 472.34H875.2Z" fill="#4D8AF0"/>
<path d="M878.84 558.7H865.15V568.19H878.84V558.7Z" fill="#4D8AF0"/>
<path opacity="0.05" d="M878.84 558.7H865.15V568.19H878.84V558.7Z" fill="white"/>
<path d="M899.48 556.39L903.28 563.69L915.37 557.32L912.14 549.82L899.48 556.39Z" fill="#4D8AF0"/>
<path d="M867.56 572.09L850.37 575.65C849.63 575.872 848.981 576.326 848.52 576.946C848.059 577.566 847.81 578.318 847.81 579.09V579.09C847.81 579.572 847.906 580.049 848.094 580.492C848.282 580.936 848.557 581.337 848.904 581.672C849.25 582.007 849.66 582.269 850.109 582.442C850.559 582.615 851.039 582.696 851.52 582.68L871.72 582.01C872.651 581.979 873.534 581.587 874.181 580.917C874.829 580.247 875.191 579.352 875.19 578.42V574.54C875.19 572.54 875.58 571.95 873.6 571.95H868.6C868.248 571.945 867.898 571.993 867.56 572.09V572.09Z" fill="#333333"/>
<path d="M885.32 414.74L872.42 424.89C870.97 426.015 869.775 427.435 868.913 429.055C868.052 430.675 867.543 432.459 867.42 434.29C867.2 438.19 868.81 442.67 876.11 444.95C876.11 444.95 873.37 474.17 868.81 475.95H903.5C903.5 475.95 901.17 462.42 899.97 447.65C898.57 430.61 897.56 416.21 885.32 414.74Z" fill="#EEEEEE"/>
<path d="M885.24 433.08L893.46 447.69L892.5 480.55C892.5 480.55 887.94 487.85 891.59 488.77C895.24 489.69 900.72 486.94 899.81 481.47V444.03C899.81 444.03 897.07 428.51 894.33 424.86L885.24 433.08Z" fill="#FDA57D"/>
<path d="M911.5 564.95L897.94 574.56C897.356 575.066 896.951 575.748 896.785 576.503C896.62 577.257 896.702 578.046 897.02 578.75V578.75C897.218 579.19 897.502 579.585 897.855 579.913C898.209 580.24 898.625 580.493 899.079 580.657C899.532 580.82 900.014 580.89 900.495 580.863C900.977 580.836 901.448 580.713 901.88 580.5L920.02 571.58C920.857 571.169 921.501 570.449 921.816 569.572C922.132 568.695 922.094 567.73 921.71 566.88L920.11 563.34C919.29 561.53 918.31 561.14 916.5 561.96L911.5 564.96C911.18 565.09 911.76 564.72 911.5 564.95Z" fill="#333333"/>
<path d="M892.59 386.91L889.28 388.55L886.95 384.51L890.22 382.76L892.59 386.91Z" fill="#795548"/>
<path d="M890.22 382.77C890.22 382.77 912.14 359.67 907.59 415.77C903.82 405.571 898.781 395.888 892.59 386.95L890.22 382.77Z" fill="#795548"/>
<path d="M879.66 410.41C886.646 410.41 892.31 404.151 892.31 396.43C892.31 388.709 886.646 382.45 879.66 382.45C872.674 382.45 867.01 388.709 867.01 396.43C867.01 404.151 872.674 410.41 879.66 410.41Z" fill="#795548"/>
<path d="M871.84 391.77C875.977 391.77 879.33 389.684 879.33 387.11C879.33 384.536 875.977 382.45 871.84 382.45C867.703 382.45 864.35 384.536 864.35 387.11C864.35 389.684 867.703 391.77 871.84 391.77Z" fill="#795548"/>
<g opacity="0.5">
<path opacity="0.5" d="M445.83 403.33C444.32 398.8 435.34 404.92 435.34 404.92L434.6 405.92L418.6 427.49L379.56 405.65V395.87C381.4 395.665 383.179 395.086 384.787 394.169C386.395 393.251 387.798 392.014 388.911 390.535C390.024 389.055 390.822 387.363 391.257 385.564C391.692 383.764 391.754 381.895 391.44 380.07C393.38 379.119 395.087 377.754 396.44 376.07C397.8 374.62 399.26 372.87 399.12 370.94C399.143 370.632 399.126 370.323 399.07 370.02C398.844 369.22 398.419 368.491 397.835 367.9C397.251 367.309 396.527 366.876 395.73 366.64C394.138 366.181 392.514 365.846 390.87 365.64C387 364.88 383.5 362.86 379.72 361.71C378.004 361.191 376.237 360.856 374.45 360.71C373.171 360.529 371.868 360.674 370.66 361.13C369.439 361.838 368.341 362.739 367.41 363.8C366.161 364.962 364.719 365.9 363.15 366.57C360.81 367.57 358.15 367.97 356.07 369.38C355.483 369.732 354.992 370.223 354.64 370.81C354.338 371.431 354.207 372.121 354.26 372.81C354.251 373.426 354.298 374.042 354.4 374.65C354.617 377.268 355.333 379.821 356.51 382.17C357.681 383.969 359.117 385.581 360.77 386.95L364.32 390.2C365.01 390.954 365.839 391.568 366.76 392.01C366.758 391.761 366.806 391.515 366.9 391.285C366.994 391.055 367.134 390.846 367.31 390.67L366.16 398.67C364.02 398.021 361.797 397.684 359.56 397.67C356.56 397.67 353.49 398.18 352.16 400.24C352.083 400.365 352.017 400.495 351.96 400.63C347.8 405.57 338.26 421.57 343.87 460.42C343.39 465.17 343.1 468.18 343.1 468.18V468.66V469.02L343.16 469.07L346.28 511.97L340.28 554.25H341.62V558.95H340.11V566.5C340.11 566.5 361.11 565.16 364.27 560.5C366.92 556.6 353.73 558.13 349.17 558.77V555.95H349.25V554.36H350.84L356.84 525.67C363.05 514.93 359.84 488.09 359.84 488.09L367.39 492.62L373.39 524.16L368.99 570.95H370.33V574.22H368.57V581.77C368.57 581.77 389.57 580.43 392.73 575.77C395.37 571.87 382.2 573.4 377.63 574.04L377.12 571.04H378.04L384.04 528.76C387.04 517.31 382.96 483.69 382.42 479.39L389.91 429.94L389.8 429.8L389.91 429.1L420.11 439.67C420.11 439.67 423.11 442.67 426.23 433.67C429.13 425.28 437.09 414.03 438.12 412.6L438.23 412.45C438.23 412.45 447.34 407.86 445.83 403.33Z" fill="url(#paint4_linear)"/>
</g>
<path d="M342.99 550.68V558.03H350.34V547.74L342.99 550.68Z" fill="#FDA57D"/>
<path d="M370.93 565.39V574.21L378.28 572.74L376.81 563.92L370.93 565.39Z" fill="#FDA57D"/>
<path d="M354.83 400.78C354.83 400.78 337.27 413.93 345.93 465.4L354.83 400.78Z" fill="#4D8AF0"/>
<path opacity="0.05" d="M354.83 400.78C354.83 400.78 337.27 413.93 345.93 465.4L354.83 400.78Z" fill="black"/>
<path opacity="0.05" d="M377.63 569.88L376.89 565.47L371.01 566.94V569.88H377.63Z" fill="black"/>
<path opacity="0.05" d="M343.07 553.71H350.42V549.29L343.07 552.23V553.71Z" fill="black"/>
<path d="M368.15 392.04L366.68 402.33L379.91 409.69V394.98L368.15 392.04Z" fill="#FDA57D"/>
<path d="M341.68 552.16L347.56 510.95L344.5 468.34L382.73 478.63C382.73 478.63 387.47 515.23 384.36 527.15L378.48 568.32H369.66L374.07 522.74L368.19 492.02L360.84 487.61C360.84 487.61 363.94 513.75 357.9 524.21L352.02 552.15L341.68 552.16Z" fill="#EEEEEE"/>
<path d="M444.45 405.11C442.98 400.7 434.24 406.66 434.24 406.66L433.52 407.66L436.99 414.11L437.1 413.96C437.1 413.96 445.92 409.52 444.45 405.11Z" fill="#FDA57D"/>
<path opacity="0.05" d="M367.99 401.52C367.99 401.52 356.23 398.42 353.29 402.99C350.35 407.56 344.5 469.16 344.5 469.16C344.5 469.16 361.98 483.86 382.73 479.45L390.04 430.95L367.99 401.52Z" fill="black"/>
<path d="M417.98 428.64L371.5 402.64C368.14 400.741 364.359 399.709 360.5 399.64C357.56 399.64 354.58 400.14 353.3 402.14C350.36 406.71 344.48 468.31 344.48 468.31C344.48 468.31 361.96 483.01 382.71 478.6L390.06 430.08L419.5 440.4C419.5 440.4 422.44 443.34 425.5 434.6C428.32 426.43 436.07 415.48 437.07 414.08L433.5 407.64L417.98 428.64Z" fill="#4D8AF0"/>
<path opacity="0.05" d="M367.95 394.33C369.186 395.91 370.766 397.188 372.57 398.066C374.374 398.945 376.354 399.401 378.36 399.4C378.851 399.4 379.342 399.374 379.83 399.32V396.45L368.07 393.51L367.95 394.33Z" fill="black"/>
<path d="M378.44 397.92C385.747 397.92 391.67 391.997 391.67 384.69C391.67 377.383 385.747 371.46 378.44 371.46C371.133 371.46 365.21 377.383 365.21 384.69C365.21 391.997 371.133 397.92 378.44 397.92Z" fill="#FDA57D"/>
<path d="M341.5 556.73V564.08C341.5 564.08 361.92 562.77 365.03 558.2C368.14 553.63 348.86 556.73 348.86 556.73H341.5Z" fill="#333333"/>
<path d="M369.21 571.52V578.87C369.21 578.87 389.63 577.56 392.74 572.99C395.85 568.42 376.57 571.52 376.57 571.52H369.21Z" fill="#333333"/>
<path opacity="0.05" d="M370.05 390.76L375.22 383.36C375.929 382.228 376.814 381.215 377.84 380.36C378.359 379.934 378.97 379.636 379.625 379.491C380.28 379.345 380.96 379.355 381.61 379.52C382.358 379.826 383.054 380.247 383.67 380.77C385.6 382.18 387.98 383.22 390.33 382.77C392.68 382.32 394.68 380.41 396.39 378.58C397.81 377.07 399.34 375.22 398.95 373.18C398.721 372.413 398.304 371.715 397.736 371.151C397.169 370.587 396.469 370.174 395.7 369.95C394.152 369.494 392.57 369.16 390.97 368.95C387.2 368.21 383.79 366.24 380.11 365.13C378.44 364.616 376.721 364.281 374.98 364.13C373.735 363.954 372.466 364.095 371.29 364.54C370.103 365.229 369.035 366.108 368.13 367.14C366.913 368.273 365.509 369.187 363.98 369.84C361.7 370.84 359.16 371.21 357.09 372.57C356.521 372.91 356.044 373.383 355.7 373.95C355.276 374.991 355.192 376.139 355.46 377.23C355.672 379.779 356.372 382.264 357.52 384.55C358.658 386.3 360.054 387.868 361.66 389.2L365.11 392.37C365.783 393.104 366.591 393.702 367.49 394.13C367.34 393.03 369.4 391.69 370.05 390.76Z" fill="black"/>
<path d="M370.05 390.27L375.22 382.87C375.929 381.738 376.814 380.725 377.84 379.87C378.359 379.444 378.97 379.146 379.625 379.001C380.28 378.855 380.96 378.865 381.61 379.03C382.358 379.336 383.054 379.757 383.67 380.28C385.6 381.69 387.98 382.73 390.33 382.28C392.68 381.83 394.68 379.92 396.39 378.09C397.81 376.58 399.34 374.73 398.95 372.69C398.73 371.912 398.317 371.202 397.748 370.627C397.18 370.052 396.475 369.629 395.7 369.4C394.152 368.944 392.57 368.61 390.97 368.4C387.2 367.66 383.79 365.69 380.11 364.58C378.44 364.066 376.721 363.731 374.98 363.58C373.735 363.404 372.466 363.545 371.29 363.99C370.103 364.679 369.035 365.558 368.13 366.59C366.913 367.723 365.509 368.637 363.98 369.29C361.7 370.29 359.16 370.66 357.09 372.02C356.52 372.362 356.043 372.84 355.7 373.41C355.276 374.451 355.192 375.599 355.46 376.69C355.672 379.239 356.372 381.724 357.52 384.01C358.658 385.76 360.054 387.328 361.66 388.66L365.11 391.83C365.783 392.564 366.591 393.161 367.49 393.59C367.34 392.54 369.4 391.2 370.05 390.27Z" fill="#333333"/>
</g>
<defs>
<linearGradient id="paint0_linear" x1="199.52" y1="127.65" x2="199.52" y2="-9.73136e-06" gradientUnits="userSpaceOnUse">
<stop stop-color="#808080" stop-opacity="0.25"/>
<stop offset="0.54" stop-color="#808080" stop-opacity="0.12"/>
<stop offset="1" stop-color="#808080" stop-opacity="0.1"/>
</linearGradient>
<linearGradient id="paint1_linear" x1="1684.99" y1="273.447" x2="1684.99" y2="272.892" gradientUnits="userSpaceOnUse">
<stop stop-color="#808080" stop-opacity="0.25"/>
<stop offset="0.54" stop-color="#808080" stop-opacity="0.12"/>
<stop offset="1" stop-color="#808080" stop-opacity="0.1"/>
</linearGradient>
<linearGradient id="paint2_linear" x1="396941" y1="162439" x2="396941" y2="30517.2" gradientUnits="userSpaceOnUse">
<stop stop-color="#808080" stop-opacity="0.25"/>
<stop offset="0.54" stop-color="#808080" stop-opacity="0.12"/>
<stop offset="1" stop-color="#808080" stop-opacity="0.1"/>
</linearGradient>
<linearGradient id="paint3_linear" x1="79042.8" y1="158063" x2="79042.8" y2="113022" gradientUnits="userSpaceOnUse">
<stop stop-color="#808080" stop-opacity="0.25"/>
<stop offset="0.54" stop-color="#808080" stop-opacity="0.12"/>
<stop offset="1" stop-color="#808080" stop-opacity="0.1"/>
</linearGradient>
<linearGradient id="paint4_linear" x1="50915.9" y1="139298" x2="62126.3" y2="139298" gradientUnits="userSpaceOnUse">
<stop stop-color="#808080" stop-opacity="0.25"/>
<stop offset="0.54" stop-color="#808080" stop-opacity="0.12"/>
<stop offset="1" stop-color="#808080" stop-opacity="0.1"/>
</linearGradient>
<clipPath id="clip0">
<rect width="923" height="585.89" fill="white"/>
</clipPath>
</defs>
</svg>
