<svg width="1036" height="612" viewBox="0 0 1036 612" fill="none" xmlns="http://www.w3.org/2000/svg">
<g clip-path="url(#clip0)">
<path opacity="0.2" d="M151.4 0.0700087C143.34 -0.159991 135.08 0.0700009 127.52 2.39C106.95 8.71 97.2 29.39 100.37 47.26C103.54 65.13 116.58 80.7 130.11 94.93C143.64 109.16 158.3 123.23 165.72 140.24C169.42 148.73 171.15 158.24 167.39 166.72C161.59 179.79 144.1 187.09 127.31 188.61C110.52 190.13 93.66 187.17 76.81 186.18C69.74 185.77 62.47 185.72 55.81 187.63C48.5 189.71 42.41 193.96 36.81 198.39C14.96 215.77 -2.52999 239.48 0.300007 264.39C3.50001 292.62 32.04 314.93 63.3 326.9C73.65 330.9 84.6 334.08 93.71 339.74C117.71 354.67 123.1 382.67 120.71 407.38C118.32 432.09 110.18 456.83 114.71 481.32C120.04 509.81 143.63 535.55 175.45 547.57C203.8 558.28 239.28 557.57 264.45 542.46C276.72 535.08 286 524.83 294.07 514.23C306.053 498.576 315.952 481.433 323.52 463.23C327.03 454.74 330.33 445.61 338.52 439.71C343.52 436.08 350 434.05 356.41 432.47C375.73 427.71 396.08 426.41 415.58 422.17C435.08 417.93 454.7 410 465.3 395.9C480.3 375.9 473.3 350.28 473.37 326.76C473.49 273.1 512.48 225.07 526.87 172.76C531.57 155.67 533.32 136.76 522.82 121.51C515.69 111.16 503.66 103.69 491.02 97.92C463.21 85.23 431.6 79.58 400.51 74.08C357.3 66.44 304.83 65.45 271.34 40.73C239.2 17 195.23 0.0700087 151.4 0.0700087Z" fill="#FF8D8D"/>
<path d="M571 612C827.812 612 1036 556.251 1036 487.48C1036 418.71 827.812 362.96 571 362.96C314.188 362.96 106 418.71 106 487.48C106 556.251 314.188 612 571 612Z" fill="#F5F5F5"/>
<path d="M957.18 186.86C957.18 186.86 921.35 222.69 941.58 275.86C961.81 329.03 906.9 417.45 906.9 417.45C906.9 417.45 907.49 417.36 908.58 417.17C982.17 404.17 1018.74 320.01 977.82 257.48C962.61 234.24 950.12 207 957.18 186.86Z" fill="#FF8D8D"/>
<path d="M957.18 186.86C957.18 186.86 936.95 230.78 957.18 266.61C977.41 302.44 960.65 403 906.9 417.45" stroke="#535461" stroke-width="2" stroke-miterlimit="10"/>
<path d="M1021 331.79C1021 331.79 980.11 325.28 976.39 361.92C972.67 398.56 897.77 403.64 897.77 403.64L899.17 404.57C961.01 445.16 1020.17 430.43 1011.17 376.57C1007.9 356.49 1008.17 336.36 1021 331.79Z" fill="#FF8D8D"/>
<path opacity="0.2" d="M1021 331.79C1021 331.79 980.11 325.28 976.39 361.92C972.67 398.56 897.77 403.64 897.77 403.64L899.17 404.57C961.01 445.16 1020.17 430.43 1011.17 376.57C1007.9 356.49 1008.17 336.36 1021 331.79Z" fill="#F5F5F5"/>
<path d="M1021 331.79C1021 331.79 989.26 338.79 991.87 367.61C994.48 396.43 944.74 431.06 897.77 403.61" stroke="#535461" stroke-width="2" stroke-miterlimit="10"/>
<path d="M926.37 419.92H862.13C863.608 416.947 864.375 413.67 864.37 410.35V117.79C864.37 112.085 862.104 106.614 858.07 102.58C854.036 98.5462 848.565 96.28 842.86 96.28H345.52C342.694 96.2787 339.896 96.8341 337.285 97.9145C334.675 98.9949 332.302 100.579 330.304 102.577C328.305 104.574 326.72 106.946 325.638 109.556C324.557 112.167 324 114.964 324 117.79V410.36C323.995 413.68 324.762 416.957 326.24 419.93H259.73C258.221 419.93 256.774 420.529 255.707 421.597C254.64 422.664 254.04 424.111 254.04 425.62V430.21C254.048 438.644 257.404 446.73 263.37 452.691C269.337 458.652 277.426 462 285.86 462H900.24C908.679 462 916.773 458.648 922.74 452.68C928.708 446.713 932.06 438.619 932.06 430.18V425.59C932.055 424.084 931.453 422.642 930.386 421.579C929.32 420.517 927.876 419.92 926.37 419.92ZM530.48 438.12L525 431.87H661.72L655.62 438.13L530.48 438.12Z" fill="url(#paint0_linear)"/>
<path d="M834.97 100.42H353.37C340.524 100.42 330.11 110.834 330.11 123.68V405.15C330.11 417.996 340.524 428.41 353.37 428.41H834.97C847.816 428.41 858.23 417.996 858.23 405.15V123.68C858.23 110.834 847.816 100.42 834.97 100.42Z" fill="#535461"/>
<path d="M845.99 148.23H341.22V416.18H845.99V148.23Z" fill="white"/>
<path d="M593.61 129.33C596.068 129.33 598.06 127.338 598.06 124.88C598.06 122.422 596.068 120.43 593.61 120.43C591.152 120.43 589.16 122.422 589.16 124.88C589.16 127.338 591.152 129.33 593.61 129.33Z" fill="white"/>
<path d="M671.55 416.73L654.2 434.52H531.9L516.23 416.73H267.29C265.815 416.73 264.401 417.316 263.358 418.358C262.316 419.401 261.73 420.815 261.73 422.29V426.77C261.73 435.018 265.007 442.929 270.839 448.761C276.671 454.593 284.582 457.87 292.83 457.87H893.28C901.528 457.87 909.439 454.593 915.271 448.761C921.103 442.929 924.38 435.018 924.38 426.77V422.29C924.38 420.815 923.794 419.401 922.751 418.358C921.709 417.316 920.295 416.73 918.82 416.73H671.55Z" fill="#535461"/>
<path d="M498.41 157.65H285.48C280.307 157.645 275.344 159.694 271.682 163.347C268.02 167 265.958 171.957 265.95 177.13V472.13C265.958 477.303 268.02 482.26 271.682 485.913C275.344 489.566 280.307 491.615 285.48 491.61H498.41C503.583 491.615 508.546 489.566 512.208 485.913C515.87 482.26 517.932 477.303 517.94 472.13V177.13C517.932 171.957 515.87 167 512.208 163.347C508.546 159.694 503.583 157.645 498.41 157.65Z" fill="url(#paint1_linear)"/>
<path d="M494.94 161.65H288.94C277.894 161.65 268.94 170.604 268.94 181.65V468.65C268.94 479.696 277.894 488.65 288.94 488.65H494.94C505.986 488.65 514.94 479.696 514.94 468.65V181.65C514.94 170.604 505.986 161.65 494.94 161.65Z" fill="#535461"/>
<path d="M502.44 192.58H281.44V457.72H502.44V192.58Z" fill="white"/>
<path d="M390.94 179.65C392.597 179.65 393.94 178.307 393.94 176.65C393.94 174.993 392.597 173.65 390.94 173.65C389.283 173.65 387.94 174.993 387.94 176.65C387.94 178.307 389.283 179.65 390.94 179.65Z" fill="white"/>
<path d="M390.94 481.65C395.911 481.65 399.94 477.621 399.94 472.65C399.94 467.679 395.911 463.65 390.94 463.65C385.969 463.65 381.94 467.679 381.94 472.65C381.94 477.621 385.969 481.65 390.94 481.65Z" fill="white"/>
<path d="M336.11 257.65H226.78C225.36 257.647 223.954 257.924 222.642 258.465C221.329 259.006 220.136 259.8 219.13 260.802C218.125 261.804 217.326 262.994 216.78 264.305C216.235 265.615 215.953 267.02 215.95 268.44V507.86C215.953 509.28 216.235 510.685 216.78 511.995C217.326 513.306 218.125 514.496 219.13 515.498C220.136 516.5 221.329 517.294 222.642 517.835C223.954 518.376 225.36 518.653 226.78 518.65H336.11C337.53 518.653 338.936 518.376 340.248 517.835C341.561 517.294 342.754 516.5 343.76 515.498C344.765 514.496 345.564 513.306 346.109 511.995C346.655 510.685 346.937 509.28 346.94 507.86V268.44C346.937 267.02 346.655 265.615 346.109 264.305C345.564 262.994 344.765 261.804 343.76 260.802C342.754 259.8 341.561 259.006 340.248 258.465C338.936 257.924 337.53 257.647 336.11 257.65V257.65Z" fill="url(#paint2_linear)"/>
<path d="M334.94 259.65H227.94C221.865 259.65 216.94 264.575 216.94 270.65V506.65C216.94 512.725 221.865 517.65 227.94 517.65H334.94C341.015 517.65 345.94 512.725 345.94 506.65V270.65C345.94 264.575 341.015 259.65 334.94 259.65Z" fill="#535461"/>
<path d="M336.44 283.65H226.44V493.65H336.44V283.65Z" fill="white"/>
<path d="M268.44 272.65C268.992 272.65 269.44 272.202 269.44 271.65C269.44 271.098 268.992 270.65 268.44 270.65C267.888 270.65 267.44 271.098 267.44 271.65C267.44 272.202 267.888 272.65 268.44 272.65Z" fill="white"/>
<path d="M294.44 270.65H274.44C273.888 270.65 273.44 271.098 273.44 271.65C273.44 272.202 273.888 272.65 274.44 272.65H294.44C294.992 272.65 295.44 272.202 295.44 271.65C295.44 271.098 294.992 270.65 294.44 270.65Z" fill="white"/>
<path d="M280.94 510.65C284.806 510.65 287.94 507.516 287.94 503.65C287.94 499.784 284.806 496.65 280.94 496.65C277.074 496.65 273.94 499.784 273.94 503.65C273.94 507.516 277.074 510.65 280.94 510.65Z" fill="white"/>
<path d="M203.73 536.25C203.73 536.25 190.47 491.25 206.22 458.11C212.924 444.258 214.953 428.604 212 413.5C210.54 406.345 208.428 399.339 205.69 392.57" stroke="#535461" stroke-width="2" stroke-miterlimit="10"/>
<path d="M215.45 371.63C215.45 377.15 205.45 393.14 205.45 393.14C205.45 393.14 195.45 377.14 195.45 371.63C195.45 368.978 196.504 366.434 198.379 364.559C200.254 362.684 202.798 361.63 205.45 361.63C208.102 361.63 210.646 362.684 212.521 364.559C214.396 366.434 215.45 368.978 215.45 371.63Z" fill="#FF8D8D"/>
<path d="M232 402.19C229 406.82 211.92 414.82 211.92 414.82C211.92 414.82 212.23 395.96 215.23 391.33C215.912 390.163 216.824 389.147 217.91 388.343C218.996 387.538 220.234 386.962 221.549 386.65C222.863 386.337 224.228 386.294 225.56 386.523C226.892 386.753 228.163 387.25 229.298 387.985C230.432 388.719 231.406 389.676 232.16 390.798C232.914 391.919 233.433 393.182 233.686 394.51C233.939 395.837 233.919 397.202 233.63 398.522C233.34 399.843 232.785 401.09 232 402.19V402.19Z" fill="#FF8D8D"/>
<path d="M231.24 454.4C226.31 456.88 207.53 455.17 207.53 455.17C207.53 455.17 217.32 439.05 222.24 436.57C224.589 435.509 227.258 435.395 229.689 436.254C232.119 437.113 234.125 438.877 235.286 441.179C236.447 443.481 236.674 446.142 235.92 448.607C235.167 451.072 233.49 453.151 231.24 454.41V454.4Z" fill="#FF8D8D"/>
<path d="M221.8 493.79C217.36 497.07 198.56 498.55 198.56 498.55C198.56 498.55 205.48 481.01 209.92 477.73C212.056 476.305 214.659 475.756 217.189 476.198C219.719 476.639 221.982 478.037 223.509 480.102C225.037 482.166 225.711 484.739 225.393 487.288C225.075 489.836 223.788 492.164 221.8 493.79V493.79Z" fill="#FF8D8D"/>
<path d="M190.91 415.89C194.91 419.73 213.3 423.72 213.3 423.72C213.3 423.72 208.79 405.41 204.83 401.57C203.905 400.583 202.789 399.794 201.551 399.25C200.312 398.706 198.976 398.42 197.623 398.408C196.27 398.396 194.929 398.658 193.68 399.179C192.432 399.7 191.302 400.469 190.36 401.44C189.417 402.41 188.681 403.561 188.197 404.825C187.712 406.088 187.489 407.436 187.54 408.788C187.591 410.139 187.917 411.467 188.496 412.689C189.075 413.912 189.896 415.004 190.91 415.9V415.89Z" fill="#FF8D8D"/>
<path d="M180.45 462.09C185.38 464.57 204.16 462.86 204.16 462.86C204.16 462.86 194.37 446.74 189.45 444.26C188.272 443.601 186.974 443.188 185.632 443.044C184.29 442.9 182.934 443.03 181.643 443.424C180.353 443.819 179.156 444.47 178.124 445.34C177.092 446.209 176.247 447.278 175.639 448.483C175.031 449.688 174.674 451.003 174.588 452.349C174.502 453.696 174.689 455.046 175.138 456.318C175.588 457.59 176.29 458.758 177.203 459.752C178.116 460.746 179.22 461.544 180.45 462.1V462.09Z" fill="#FF8D8D"/>
<path d="M176.45 508.39C180.89 511.67 199.69 513.15 199.69 513.15C199.69 513.15 192.77 495.61 188.33 492.33C186.194 490.905 183.591 490.356 181.061 490.797C178.531 491.239 176.268 492.637 174.741 494.702C173.213 496.766 172.539 499.339 172.857 501.888C173.175 504.436 174.462 506.764 176.45 508.39Z" fill="#FF8D8D"/>
<path d="M995 393.1C983.93 379.67 970.52 364.24 972.4 346.37C973.92 331.9 970.28 318.52 971 304C972 283.37 967.86 267.22 953 254C944.32 246.27 929.81 240.2 925.49 241.75C916.93 244.81 907.59 243.64 898.78 245.75C892.09 247.31 887.64 249.75 884.88 252.75C879.33 257.75 879.24 264.75 881.77 272.2C879.562 276.244 878.229 280.707 877.858 285.299C877.488 289.892 878.087 294.511 879.618 298.856C881.148 303.202 883.576 307.177 886.743 310.523C889.91 313.87 893.745 316.513 898 318.28C891.83 320.86 886.5 326.8 884.42 338.86C882.974 347.142 880.789 355.278 877.89 363.17C876.587 363.779 875.252 364.317 873.89 364.78C874.19 364.9 874.5 364.98 874.8 365.09C874.15 365.34 873.51 365.59 872.8 365.81C873.983 366.272 875.204 366.627 876.45 366.87C868.45 387.08 858.45 399.6 858.45 399.6C858.45 399.6 839.8 403.72 832.55 396.51C832.55 396.51 833.73 397.89 835.33 399.96C828.24 397.02 816.6 392.22 806.65 388.27C799.43 385.4 797.58 388.27 797.65 392.27C795.888 392.491 794.188 393.062 792.65 393.95C790.517 392.578 788.28 391.374 785.96 390.35C781.82 389.35 768.35 382.11 754.88 406.82C747.04 421.19 726.94 447.42 711.49 466.82C681.44 480.64 642.32 498.14 627.78 502.54H618.46C617.24 500.54 616.39 499.28 616.39 499.28L615.67 499.76L615.36 499.28C615.36 499.28 597.06 511.95 578.48 512.05C575.837 512.014 573.207 511.678 570.64 511.05C562.1 508.9 556.08 507.94 551.78 508.05C546.69 507.96 543.78 509.17 542.02 511.45C541.784 511.749 541.566 512.063 541.37 512.39V512.39C541.173 512.714 540.993 513.048 540.83 513.39V513.39C540.67 513.75 540.51 514.13 540.37 514.52C540.312 514.868 540.334 515.224 540.435 515.562C540.535 515.9 540.712 516.21 540.95 516.47C541.199 516.82 541.47 517.154 541.76 517.47L542.28 518.03C544.62 520.45 548.88 523.66 554.18 527.24C555.71 528.24 557.33 529.34 559.02 530.43L562.23 532.43L565.1 534.22L566.25 534.93L567.53 535.71L569.82 537.1L571.18 537.92L573.75 539.45L575.83 540.68C581.27 543.89 586.69 547 591.58 549.76L595 551.8L595.33 551.98L597.53 553.21L601.33 555.32L603.94 556.76L605.16 557.43L606.47 558.15L606.73 558.29L609.01 559.53C609.479 559.609 609.96 559.585 610.419 559.461C610.878 559.337 611.305 559.115 611.67 558.81C612.33 556.01 613.94 550.01 615.67 549.55C617.4 549.09 624.89 536 627 527.24H647.22C651.203 526.9 655.159 526.291 659.06 525.42C653.84 529.14 648.67 531.48 644.65 530.48C636.15 528.37 628.1 533.55 627.29 538.66C627.29 538.77 627.22 538.87 627.19 538.98C627.16 539.09 627.14 539.19 627.12 539.29C627.1 539.39 627.06 539.54 627.04 539.67C627.02 539.8 627.04 539.88 627.04 539.99C627.04 540.1 627.04 540.24 627.04 540.37C627.04 540.5 627.04 540.58 627.04 540.68C627.04 540.78 627.04 540.94 627.04 541.07C627.04 541.2 627.04 541.27 627.04 541.37C627.04 541.47 627.1 541.64 627.14 541.78C627.18 541.92 627.14 541.96 627.21 542.04C627.273 542.221 627.347 542.398 627.43 542.57L627.48 542.7C627.592 542.918 627.719 543.129 627.86 543.33L628.02 543.54C628.12 543.68 628.23 543.82 628.35 543.95L628.58 544.18C628.7 544.3 628.83 544.42 628.96 544.54L629.24 544.77L629.69 545.1L630.02 545.32L630.56 545.64L630.92 545.83L631.6 546.15L631.94 546.3C632.3 546.45 632.68 546.59 633.09 546.72C633.74 546.93 634.51 547.15 635.38 547.37L636.25 547.58L637.52 547.87L638.19 548.02C639.057 548.207 639.977 548.393 640.95 548.58L642.3 548.83L643.4 549.03L645.93 549.47C647.51 549.74 649.16 550.01 650.93 550.27L655.29 550.93L660.97 551.74L662.23 551.91L664.23 552.19L667.16 552.58L669.16 552.84L674.35 553.5L675.97 553.7L679.24 554.1C683.54 554.62 687.7 555.1 691.53 555.53L695.96 556.03L698.2 556.28L699.2 556.38L701.88 556.67L703.37 556.83L705.21 557.02L707.8 557.29H708.08L709.74 557.46C709.948 557.482 710.158 557.461 710.358 557.398C710.557 557.334 710.741 557.23 710.898 557.092C711.055 556.954 711.182 556.784 711.27 556.595C711.358 556.405 711.406 556.199 711.41 555.99C711.41 555.94 711.41 555.88 711.41 555.82C711.563 555.588 711.646 555.318 711.65 555.04C711.694 552.573 712.005 550.119 712.58 547.72C712.69 547.31 712.82 546.89 712.96 546.47L713.12 545.99C713.3 545.48 713.48 544.99 713.69 544.44C713.841 544.067 713.971 543.687 714.08 543.3C714.08 543.18 714.15 543.06 714.19 542.93C714.23 542.8 714.29 542.52 714.33 542.31C716.41 535.2 713.9 521.94 713.18 516.73C712.949 515.066 712.567 513.425 712.04 511.83C712.17 511.843 712.3 511.843 712.43 511.83C713.504 511.435 714.514 510.886 715.43 510.2C730.71 504.75 743.59 498.52 747.66 492.28C754.251 490.54 761.252 491.273 767.34 494.34C775.25 498.27 835.09 517.8 862.95 526.82C867.95 531.13 871.87 533.65 874.04 533.46C874.04 533.46 909.51 539.2 923.77 528C925.04 528.88 925.84 529.35 925.84 529.35C925.84 529.35 946.56 519.06 949.67 505.67C950.67 501.33 951.58 494.93 952.51 487.85C957.317 483.007 960.019 476.463 960.03 469.64C960.68 447.16 969.39 421.48 975.85 398.64C983.69 399.26 986.72 397.78 993.91 394.23L993.59 393.82C994.1 393.52 994.55 393.32 995 393.1ZM876.21 426.77L872.21 425.44C873.552 423.649 874.708 421.725 875.66 419.7L876.21 426.77ZM853.92 436.23L877.92 450.63L878.13 453.56C877.838 455.79 877.905 458.052 878.33 460.26C867.75 450.86 855.37 439.45 853.91 436.22L853.92 436.23ZM844.12 415.23C841.5 414.15 839.33 413.17 837.84 412.36C839.84 412.5 841.74 412.62 843.4 412.71C843.728 413.522 843.969 414.367 844.12 415.23V415.23ZM779.84 438.7C779.84 438.7 783.98 429.44 793.31 444.88C794.76 447.28 797.43 451.1 800.96 455.83L773.8 452.2C777 447.24 779.15 442.63 779.84 438.71V438.7Z" fill="url(#paint3_linear)"/>
<path d="M839.5 401.5C839.5 401.5 820.5 393.5 805.5 387.5C790.5 381.5 799.5 401.5 799.5 401.5C799.5 401.5 824.5 408.5 824.5 409.5C824.5 410.5 845.5 411.5 845.5 411.5L839.5 401.5Z" fill="#F7C4A7"/>
<path opacity="0.05" d="M839.5 401.5C839.5 401.5 820.5 393.5 805.5 387.5C790.5 381.5 799.5 401.5 799.5 401.5C799.5 401.5 824.5 408.5 824.5 409.5C824.5 410.5 845.5 411.5 845.5 411.5L839.5 401.5Z" fill="black"/>
<path d="M920.5 322.5C920.5 322.5 886.5 304.5 880.5 339.5C874.5 374.5 855.5 398.5 855.5 398.5C855.5 398.5 837.5 402.5 830.5 395.5C830.5 395.5 847.5 415.5 839.5 417.5C839.5 417.5 857.5 430.5 865.5 426.5C873.5 422.5 879.5 395.5 882.5 388.5C885.5 381.5 896.5 320.5 920.5 322.5Z" fill="#575988"/>
<path opacity="0.1" d="M920.5 322.5C920.5 322.5 886.5 304.5 880.5 339.5C874.5 374.5 855.5 398.5 855.5 398.5C855.5 398.5 837.5 402.5 830.5 395.5C830.5 395.5 847.5 415.5 839.5 417.5C839.5 417.5 857.5 430.5 865.5 426.5C873.5 422.5 879.5 395.5 882.5 388.5C885.5 381.5 896.5 320.5 920.5 322.5Z" fill="black"/>
<path d="M901.5 310.5C901.5 310.5 922.5 334.5 923.5 354.5C924.5 374.5 947.5 333.5 949.5 332.5C951.5 331.5 929.5 297.5 927.5 286.5C925.5 275.5 901.5 310.5 901.5 310.5Z" fill="#F7C4A7"/>
<path d="M916 320.75L902.75 332.75L909 358L926 342L924 326L916 320.75Z" fill="#F7C4A7"/>
<path d="M639.5 498.5H616.5L625.5 520.5L647.5 514.5L639.5 498.5Z" fill="#F7C4A7"/>
<path opacity="0.1" d="M621.82 495.33C621.82 495.33 598 511.92 577.65 506.76C557.3 501.6 551.77 503.53 549.4 510.19C547.21 516.32 606.24 548.74 615.65 553.86C615.796 553.94 615.958 553.985 616.125 553.992C616.291 553.999 616.456 553.967 616.608 553.899C616.76 553.831 616.895 553.729 617.001 553.601C617.107 553.473 617.182 553.322 617.22 553.16C617.86 550.44 619.41 544.61 621.07 544.16C623.23 543.58 633.07 525.16 632.53 517.92C631.99 510.68 621.82 495.33 621.82 495.33Z" fill="black"/>
<path d="M620.82 495.33C620.82 495.33 597 511.92 576.65 506.76C556.3 501.6 550.77 503.53 548.4 510.19C546.21 516.32 605.24 548.74 614.65 553.86C614.796 553.94 614.958 553.985 615.125 553.992C615.291 553.999 615.456 553.967 615.608 553.899C615.76 553.831 615.895 553.729 616.001 553.601C616.107 553.473 616.182 553.322 616.22 553.16C616.86 550.44 618.41 544.61 620.07 544.16C622.23 543.58 632.07 525.16 631.53 517.92C630.99 510.68 620.82 495.33 620.82 495.33Z" fill="#F3B5B7"/>
<path d="M817.5 455.5L750.5 446.5C750.5 446.5 641.5 498.5 628.5 499.5L631.5 522.5H651.5C659.5 522.5 737.5 505.5 748.5 488.5C754.864 486.808 761.628 487.52 767.5 490.5C777.5 495.5 873.5 526.5 873.5 526.5L817.5 455.5Z" fill="#575988"/>
<path opacity="0.1" d="M817.5 455.5L750.5 446.5C750.5 446.5 641.5 498.5 628.5 499.5L631.5 522.5H651.5C659.5 522.5 737.5 505.5 748.5 488.5C754.864 486.808 761.628 487.52 767.5 490.5C777.5 495.5 873.5 526.5 873.5 526.5L817.5 455.5Z" fill="black"/>
<path d="M698.5 486.5L687.5 500.5L698.5 506.5L714.5 494.5L698.5 486.5Z" fill="#F7C4A7"/>
<path d="M889.5 470.5C889.5 470.5 853.5 439.68 851.01 434.09C848.52 428.5 789.5 390.5 785.5 389.5C781.5 388.5 768.5 381.5 755.5 405.5C742.5 429.5 694.5 487.5 694.5 487.5C694.5 487.5 709.5 508.5 714.5 507.5C719.5 506.5 775.5 459.5 779.5 436.5C779.5 436.5 783.5 427.5 792.5 442.5C801.5 457.5 859.5 529.5 870.5 528.5C870.5 528.5 913.5 535.5 922.5 518.5C931.5 501.5 889.5 470.5 889.5 470.5Z" fill="#575988"/>
<path d="M910 324C910 324 897.5 329.5 896.5 352.5C895.5 375.5 873.5 414.5 873.5 414.5L875.5 460.5C875.5 460.5 899.5 484.5 901.5 499.5C903.5 514.5 920.5 524.5 920.5 524.5C920.5 524.5 940.5 514.5 943.5 501.5C946.5 488.5 948.5 456.5 953.5 444.5C958.5 432.5 955.5 357.5 955.5 357.5L940.5 331.5L932.5 322.5L911.5 346.5C911.5 346.5 900 331 910 324Z" fill="#DDDBE2"/>
<path opacity="0.1" d="M880.5 445.5C880.5 445.5 877.5 409.5 886.5 401.5L904.5 350.5C904.5 350.5 911 326 910 324C909 322 886.5 343.5 886.5 343.5L871.5 396.5L875.5 452.5L880.5 445.5Z" fill="black"/>
<path d="M879.5 445.5C879.5 445.5 876.5 409.5 885.5 401.5L903.5 350.5C903.5 350.5 910.5 325.5 909.5 323.5C908.5 321.5 885.5 343.5 885.5 343.5L870.5 396.5L874.5 452.5L879.5 445.5Z" fill="#575988"/>
<path d="M886.5 429.5C886.5 429.5 836.5 413.5 833.5 409.5C830.5 405.5 798.5 379.5 787.5 397.5C776.5 415.5 828.5 420.5 828.5 420.5L881.5 452.5L886.5 429.5Z" fill="#F7C4A7"/>
<path opacity="0.1" d="M700.67 500.41L685.87 497.75C685.87 497.75 661.63 528.8 649 525.65C636.37 522.5 624.75 536.09 638.09 540.45C650.14 544.39 702.18 549.9 712.09 550.92C712.291 550.941 712.493 550.92 712.685 550.858C712.878 550.797 713.055 550.696 713.206 550.563C713.357 550.429 713.479 550.266 713.564 550.083C713.649 549.9 713.695 549.702 713.7 549.5C713.776 545.635 714.555 541.816 716 538.23C718.67 531.68 716 517.61 715.26 512.23C714.852 509.076 713.866 506.025 712.35 503.23L700.67 500.41Z" fill="black"/>
<path d="M700.42 501.38L685.62 498.72C685.62 498.72 661.38 529.77 648.77 526.63C636.16 523.49 624.52 537.07 637.86 541.43C649.91 545.37 701.95 550.88 711.86 551.9C712.061 551.921 712.263 551.9 712.456 551.838C712.648 551.777 712.825 551.676 712.976 551.543C713.127 551.409 713.249 551.246 713.334 551.063C713.419 550.88 713.466 550.682 713.47 550.48C713.519 546.624 714.268 542.808 715.68 539.22C718.35 532.67 715.68 518.6 714.94 513.22C714.532 510.066 713.546 507.015 712.03 504.22L700.42 501.38Z" fill="#F3B5B7"/>
<path opacity="0.1" d="M909 322C926.673 322 941 307.673 941 290C941 272.327 926.673 258 909 258C891.327 258 877 272.327 877 290C877 307.673 891.327 322 909 322Z" fill="black"/>
<path d="M906 322C923.673 322 938 307.673 938 290C938 272.327 923.673 258 906 258C888.327 258 874 272.327 874 290C874 307.673 888.327 322 906 322Z" fill="#F7C4A7"/>
<path d="M937.5 321.5C937.5 321.5 975.5 334.5 975.5 361.5C975.5 388.5 954.5 431.5 953.5 466.5C952.5 501.5 897.5 496.5 897.5 496.5C897.5 496.5 889.5 378.5 897.5 369.5C905.5 360.5 941.5 325.5 937.5 321.5Z" fill="#575988"/>
<path opacity="0.1" d="M930.5 377.5C930.5 377.5 916.5 439.5 883.5 428.5C883.5 428.5 866.5 453.5 878.5 464.5C878.5 464.5 907.5 471.5 926.5 452.5C945.5 433.5 959.5 426.5 962.5 403.5C965.5 380.5 967.5 348.5 957.5 351.5C947.5 354.5 930.5 377.5 930.5 377.5Z" fill="black"/>
<path d="M931.5 376.5C931.5 376.5 917.5 438.5 884.5 427.5C884.5 427.5 867.5 452.5 879.5 463.5C879.5 463.5 908.5 470.5 927.5 451.5C946.5 432.5 960.5 425.5 963.5 402.5C966.5 379.5 968.5 347.5 958.5 350.5C948.5 353.5 931.5 376.5 931.5 376.5Z" fill="#575988"/>
<path d="M716.54 536C716.54 536.09 716.48 536.2 716.45 536.28C715.761 537.99 715.236 539.761 714.88 541.57C715.12 540.79 715.4 539.99 715.72 539.19C716.113 538.161 716.388 537.091 716.54 536Z" fill="#DDDBE2"/>
<path d="M638.59 538.51C634.47 537.16 632.74 534.94 632.67 532.6C630.97 535.86 632.04 539.52 637.86 541.42C649.91 545.36 701.96 550.87 711.86 551.89C712.062 551.911 712.265 551.89 712.458 551.827C712.651 551.765 712.828 551.664 712.98 551.529C713.131 551.395 713.253 551.23 713.337 551.046C713.422 550.862 713.467 550.663 713.47 550.46V550.46C713.477 550.093 713.347 549.736 713.104 549.461C712.862 549.185 712.525 549.01 712.16 548.97C701.3 547.81 650.48 542.39 638.59 538.51Z" fill="#DDDBE2"/>
<path d="M549.78 508.43C550.045 507.693 550.38 506.983 550.78 506.31C549.703 507.401 548.897 508.73 548.43 510.19C546.24 516.32 605.27 548.74 614.68 553.86C614.827 553.94 614.99 553.985 615.157 553.991C615.323 553.997 615.49 553.964 615.642 553.896C615.794 553.827 615.928 553.724 616.033 553.594C616.139 553.465 616.213 553.313 616.25 553.15V553.15C616.306 552.92 616.284 552.677 616.188 552.46C616.092 552.243 615.928 552.064 615.72 551.95C605.32 546.26 547.62 514.49 549.78 508.43Z" fill="#DDDBE2"/>
<path d="M621.44 542.41C620.91 542.55 620.39 543.26 619.9 544.23L620.06 544.17C620.5 544.05 621.25 543.17 622.16 541.87C621.965 542.104 621.719 542.289 621.44 542.41V542.41Z" fill="#DDDBE2"/>
<path opacity="0.1" d="M901.56 318.17C898.74 324.39 898.15 331.4 896.08 337.92C891.97 350.85 881.66 361.55 869.31 365.68C879.7 369.82 891.96 364.76 899.99 356.36C908.02 347.96 912.73 336.78 917.24 325.9C928.9 333.74 927.48 351.76 931.4 365.79C933.082 371.894 936.055 377.566 940.118 382.422C944.181 387.279 949.239 391.206 954.95 393.94C960.642 396.494 966.83 397.753 973.067 397.627C979.304 397.501 985.436 395.992 991.02 393.21C980.33 380.21 965.11 362.28 966.92 344.92C968.39 330.86 958.3 320.12 958.99 306.01C959.99 286.01 952.33 275.85 937.99 263.01C929.61 255.5 942.8 244.91 931.99 248.01C927.74 249.23 923.26 244.68 919.09 246.18C910.83 249.18 901.81 248.02 893.31 250.02C849.13 260.4 905.68 309.09 901.56 318.17Z" fill="black"/>
<path d="M902.56 317.17C899.74 323.39 899.15 330.4 897.08 336.92C892.97 349.85 882.66 360.55 870.31 364.68C880.7 368.82 892.96 363.76 900.99 355.36C909.02 346.96 913.73 335.78 918.24 324.9C929.9 332.74 928.48 350.76 932.4 364.79C934.082 370.894 937.055 376.566 941.118 381.422C945.181 386.279 950.239 390.206 955.95 392.94C961.642 395.494 967.83 396.753 974.067 396.627C980.304 396.501 986.436 394.992 992.02 392.21C981.33 379.21 967.11 364.28 968.92 346.92C970.39 332.86 968.2 318.41 968.92 304.31C969.92 284.31 960.11 264.99 945.76 252.15C937.38 244.64 924.29 243.68 920.11 245.15C911.85 248.15 902.83 246.99 894.33 248.99C850.13 259.4 906.68 308.09 902.56 317.17Z" fill="#FC6681"/>
</g>
<defs>
<linearGradient id="paint0_linear" x1="593.05" y1="462.02" x2="593.05" y2="96.27" gradientUnits="userSpaceOnUse">
<stop stop-color="#808080" stop-opacity="0.25"/>
<stop offset="0.54" stop-color="#808080" stop-opacity="0.12"/>
<stop offset="1" stop-color="#808080" stop-opacity="0.1"/>
</linearGradient>
<linearGradient id="paint1_linear" x1="119694" y1="212439" x2="119694" y2="100897" gradientUnits="userSpaceOnUse">
<stop stop-color="#808080" stop-opacity="0.25"/>
<stop offset="0.54" stop-color="#808080" stop-opacity="0.12"/>
<stop offset="1" stop-color="#808080" stop-opacity="0.1"/>
</linearGradient>
<linearGradient id="paint2_linear" x1="47823" y1="173209" x2="47823" y2="105088" gradientUnits="userSpaceOnUse">
<stop stop-color="#808080" stop-opacity="0.25"/>
<stop offset="0.54" stop-color="#808080" stop-opacity="0.12"/>
<stop offset="1" stop-color="#808080" stop-opacity="0.1"/>
</linearGradient>
<linearGradient id="paint3_linear" x1="386857" y1="224054" x2="386857" y2="122857" gradientUnits="userSpaceOnUse">
<stop stop-color="#808080" stop-opacity="0.25"/>
<stop offset="0.54" stop-color="#808080" stop-opacity="0.12"/>
<stop offset="1" stop-color="#808080" stop-opacity="0.1"/>
</linearGradient>
<clipPath id="clip0">
<rect width="1036" height="612" fill="white"/>
</clipPath>
</defs>
</svg>
